<svg version="1.1" xmlns="http://www.w3.org/2000/svg" viewBox="0 0 496.75 1314.3515625" width="993.5" height="2628.703125"><!-- svg-source:excalidraw --><metadata><!-- payload-type:application/vnd.excalidraw+json --><!-- payload-version:2 --><!-- payload-start -->eyJ2ZXJzaW9uIjoiMSIsImVuY29kaW5nIjoiYnN0cmluZyIsImNvbXByZXNzZWQiOnRydWUsImVuY29kZWQiOiJ4nO1daVPqyFx1MDAxYf5+foXl/Tpkel/myy1cdTAwMTZFXHUwMDFjUVx1MDAxNHG795ZcdTAwMTUhYGRcdTAwMTWCKFPnv99cdTAwMGUqXHQhhIQg5sxcdTAwMDSrLMjS3en087xLv93vXz/29vatt4Gx/8fevvFa1ztmY6hP9n+zj79cdTAwMTjDkdnvqVNo9nvUXHUwMDFmXHUwMDBm67MrXHUwMDFmLWsw+uP33/XBQGuZ1kO/39bq/e77bUbH6Fx1MDAxYT1rpC78j/q9t/fX7L86Yzbsm4vk+Kp10Sk1SfW0UJLF0mO2+n7r7KLP1lxmjbql91pcdTAwMWTDOfVqN4UhTTBcdTAwMGVcdTAwMDWn8+Nv6riY/5qYXHLrUVx1MDAxZIFcdTAwMDBrnFGGnFx1MDAwYlx1MDAxZlxys/VoqXNcZsyPvdfxx55zZGRccvttI9/v9Id2Q/5cdTAwMDVccvvPacaDXm+3hv1xrzG/xlx1MDAxYeq90UBcdTAwMWaq53aua5qdTtV6m5WuOk917b6njuuPplwiz/FVd6lKW489Y2T3LZxcdTAwMWbtXHUwMDBm9Lppvc1cdTAwMWXZeVxuu4WDUmP2XHUwMDFh/ue0aah3jZL9XHUwMDFleuNOZ37Y7DVcZrt393WwUFuv8VHbwtUjw7BLgFx1MDAxMHIqXHUwMDE553J+xlx1MDAxOTLYe+y035tcclx1MDAxZVx1MDAwNJkgTN3qVD4qqDFjzcps6p2R4fS03YJcdTAwMDPveHKPqYUhY1x1MDAxOa9O97tG3MXoiDSuZU3Xa5Vu69h4XHUwMDE0l93i/vy6n7/5XHUwMDE3+34zLfLChNdO9YdG5Xr80n59mpyUXHUwMDE3a/msX1x1MDAxZlx1MDAwZftcdTAwMTNXuVx1MDAxZt+c3lx1MDAxZlx1MDAwZlx1MDAxYfr7c0LOXHUwMDA1kVx1MDAxOFx1MDAwMUk4mZ/vmL22t7M7/Xrb6ZpcdTAwMWauXHUwMDA2e3BVXHUwMDE4WNVxXHUwMDFmXHUwMDFl5i9I7zh/WS5nr1x1MDAwMVxmjSsoiOaBXHUwMDE0hMugQi7kzNEkUzStQFx1MDAxM1xmjybKOZacXHUwMDAz6Fx1MDAwMyayXHUwMDEyTEBcdTAwMTAhJXbd9eVouuwxfnp3PX21xDXpWlfdq8xcdTAwMTnbXHUwMDAxmlx1MDAwMst9yjF6e3hvvV1N2ze1x4ubdsNoJlx1MDAxMaXl4v115tC8zVx1MDAxN0/uTy/Ld/naW59Hkn6UXHUwMDAzXGbRXCJUXHUwMDEx9ZN/RMNUYp7Kv1xiiEVcdTAwMTHkXHUwMDFmVbKMQIR4XHUwMDE0yFx1MDAxMolcdTAwMThXN9LdIVx1MDAxNlx1MDAxN6zR9KxU7eZbxnGXXYlcdTAwMDNz2tlcdTAwMDGyXHUwMDAyyy3kIe6Do1x1MDAxZVXP9tZuXHUwMDFk31x1MDAxZNaOXHUwMDEzidiX3sVkaFxmx6Usn+ZgXHUwMDFkZEnm9iyOXFzFLJWrMVGKw6OUM0AolXxJIbVpcKVcXKWIQEyB3Fx1MDAxZEifeifNm1x1MDAwN1TSXHUwMDBiSJzkquhcbtNie1x1MDAwN2Bcbiz35jLXelx1MDAxZTRcdTAwMWZ4/6wwXHUwMDE0TT66qLzmtlCu+ZDHN3+ePFx1MDAxZFx1MDAxN9hLoVY7fy1cdTAwMTZcXGN383Jr93JcXOuUplx1MDAxN4cy375cdTAwMWVcdTAwMWN0XHUwMDFlSrC4VVJxoFx1MDAxY4tUKlx1MDAwN5mikcu0u8OnUnlcZu5v2mXeXGJNKoJqXHUwMDAyLWtcdTAwMDFcdTAwMTSkWsB2+IVE0Fx1MDAwMlx1MDAwMFZcdTAwMWFcdTAwMDAn0M9cblx1MDAwZVDcKYVcdTAwMDJcdLFDNWAyOC5f5vJvXHUwMDE37Wpv2H0+f8vkW6PvZoLc3YC0XHUwMDBiL3cnxefGM1x1MDAxYln1dqdwnkTEkpPKyLKuW82HcuF4kleG9rQ9XHKP2Fx1MDAwNaCy1LKOi1BcdTAwMWFcdTAwMDWhXHUwMDAwKENcdTAwMTlcdTAwMDBcdTAwMWFcdTAwMDWhUFx1MDAxOeNMUIR2aFo/g2tQ60Pr/uJwdFIpPlx1MDAxZIinYX1cdTAwMDdIXG6W1bcvLShcdTAwMDUn1fy9Xr4v5nC3SZKI0MZRKy+yk/FdrduFpSd2VD++XHUwMDFhxJWpPLWst4RYXHUwMDE2XHUwMDAxsVx1MDAxOGKk1O9oMpUyijngYodKe/uqlm93zs7NslnOn508PFbAc39cdTAwMDfAXG4sV+DsXHUwMDE1XHUwMDFlNIr37CYr60PrsvfMp0lcdTAwMDTsdeOudFiwclx1MDAwN5Xjgf6MJ0Omn94sXHUwMDAztmHq3X6vsVxiV0SwXHUwMDA2OEHLXHUwMDEzQT7WNSQ2YKH/XFyQ38lcdTAwMTS6XHUwMDBi0OVcdTAwMTGgy1x0RVx1MDAwMlx1MDAxMOEnbJdcdTAwMWNln9DFlEiKJd3hpNAzLTSem1b26vX6XG7rlfLFQe/sYVx1MDAwN1x1MDAxMPtcdTAwMTa7eDh6/pOeP2eLL6/Z07unoijmerfboJqzWlFaXHUwMDA3dWtwIG5cdTAwMWaa5+Wn12Hpn2TH98eT2uVp1nh+rFx1MDAxOOzk/PxIb99nI7jzsYaR8OpcdTAwMWNcdTAwMTBItERJjvKBNEFS3SNcdTAwMTKBifBcdTAwMDTGqFIhgOJcIlx1MDAxZv5a6S+EVFxizFx1MDAwMIOOl/HLXHTsdkBfuq3DXFzr8nTYPpYn+UnnXHUwMDA2fjchnLeronJRmMIqyVx1MDAxY1x1MDAxNY8nXHUwMDA3xFx1MDAxYVxmXHUwMDEyTDSAw9s/71+NbEe/o6fnXHUwMDAz2puwtyRcdTAwMTJccihC1pFPfZyFpDTsv1ZqYiwjXHUwMDEwjVCEQlx082pLXHUwMDEwgdVUo1hIadMgjaCJxDUyPNdcdTAwMTAkXHUwMDE5ITDanD9FmEvC5Fx1MDAwZamm9TausO7rU5E3XHUwMDBmTun0nuUqsvDdlPDLQDc45sHTyFx1MDAwNdhiuDR5qIC8XGZUXHUwMDFmzyFJjZlcdTAwMTX4zPrj01x1MDAxOWGfb1x1MDAwNH1cdTAwMWP56YUtVK1cdTAwMTBcdTAwMTAwXHUwMDFjyaFIXHRW+oFi4U1wu8257vnhQd/00oLzbc9cdTAwMTkvs1x1MDAxZvPv//tt/dWIaDTSXHLEdflcdTAwMTI6O/rIyve7XdNSXHUwMDBmXrFcdTAwMWK9xKeWPrRy6lx1MDAxZJu91uK7/IhGLYVcYj21XHUwMDA3T78+XHUwMDFluaFiXHUwMDBmM31gd/bSYDB6jfU1XHUwMDA2XHUwMDA35Vx1MDAwNdZIloef/ZRZmyZcdTAwMWVccn1phKv2uM95+cToPPQnofgqOOIjXCJfIZBcdTAwMTJWTMLKxSYsXHUwMDA0XGJCVDJcdTAwMTRN0Vx1MDAwMIBwweRG/tSUsLZBWDHoY0PCXG6OT0wmYVx1MDAwNUe/RCQsXGZTwopJWPn4XHUwMDFhXHUwMDE241x1MDAxY1x1MDAwMyxoNMJStlx1MDAxNFx1MDAxNZxtZFx1MDAxOaWEtVxywopBXHUwMDFmXHUwMDFiXHUwMDEyVnB4ZjJcdCs4mCaIsFx1MDAxMICa111MqFx1MDAxZmMxvHBhSltraatcdTAwMTCbtjigTFFcdTAwMDWKZFx1MDAxN0JOXHUwMDA1sFx1MDAxZDp/Uz0rszhcdTAwMTLtT1x1MDAxOPLyuW03XHUwMDE0XHUwMDE2g1A2pLDgYNBkUlhwtFFcdTAwMTCFQbxcdTAwMThcZkdTl1ZcXOY6iK9wKVx1MDAxM5EoQVwio0XcKJ7BQqCNpu236X395ypcXDG4Y0O2XG5cdTAwMGWETSZbXHUwMDA1h1pFYSue+rPistVhbLaSQlnpXHUwMDAyR9OzXHUwMDE4oFxifpWalZJVXHUwMDE4sopBXHUwMDFkXHUwMDFiklVwTHAyySo4uGxccllpi7ah8PVmQcQ0yLGcf1x1MDAxY45zllx1MDAxZWCNXHUwMDExXHUwMDA3TCmHLXBYMT6HUVx1MDAwMCnikSiMS1xi7eXfXzKF+P1cdTAwMTSWXHUwMDAxWmQzUZmIXHUwMDFh81x1MDAxZMr2531cdTAwMTDvgtpiXHUwMDEwzYbUXHUwMDE2XHUwMDFjPe2qUXUrXHUwMDAwWFx1MDAwMNVVXHUwMDA0IMglQpQttYJonHPMXHUwMDA0kFx1MDAxOFx1MDAwM8Lhcqt2patcdTAwMDXGwEb05lx1MDAwYsZDqmsg1ddWcN3RXHUwMDE23PlqRFFcYkg0x1x1MDAxOLVVdkk2o7t566JtlZCFr0dcdTAwMGbl3m3p7KzZadRq5iH94sihXHUwMDFkqIOZyPpghsuod0BcdTAwMWO5XHUwMDEyXHUwMDA0ot/CI9+CUeRnwVwici2KQHYhZ6KxPpNKw8BKz6CK2ClfZv1/0KRLcMhzoFxcXHUwMDAxSCPMYddcdTAwMGZeVVx1MDAxZOyaapzr1lCTkjv6iGNuzmWNXHUwMDEws1cz/6SSZ4XkKcWXPIBSgFx1MDAxOFx1MDAxNJH26KGAQlxuNnRcdTAwMTVsJniab7JcZu6B2W5XpjeXufb0kFbHv6LgyShcdTAwMDAorVx1MDAwYsw/zlwiTvtDkYaEdE6uJVlccmLgQIXDXHUwMDA1/X5cdEmJouB3XHUwMDA2JmSmUDNcZlx1MDAxOaUu+yZcdTAwMWVcdTAwMDNcdTAwMDcvPPLKXHUwMDAx1dFcYlx0wCDiqi1cYlx1MDAxMkGWXHUwMDFhgjUuZutcdTAwMDDe31xmw/y7mDo4YjyYqaXG5aJcdKBMZqRcdOrQ2idTU00ppK5x6qzucTlxbY53bMuUqVcw9XF8puZcdTAwMDRcbkJcIu7SgFx1MDAwMFNcdTAwMDNbjdW/qVc3s3KQ2p9Q8+hQ49BVXHUwMDAyXmTQpVx1MDAxMb5cdTAwMGJcdTAwMDZcck1eXHUwMDFm3KXkt72yX71r++vWODR4TdVSM1x1MDAwMFf1S/VP2lx1MDAxYkVcdTAwMDAkltqBNYmpi0K/i0CDV8tcdTAwMDVcdTAwMTIo4lx1MDAxYcBcdTAwMGWYUlV3bzdcdTAwMDT651x1MDAxNqbwXHSTXHUwMDE0wUghk1x1MDAxMCvu5FhuXHUwMDE2M7mZqltcdTAwMTVK/UDNlyv98GzQfjFcdTAwMGbH2aPpr6jqblfTzfz6qi5cdTAwMDRcdTAwMWMjyikgilx1MDAxZaHrst2oulx1MDAxZU1cdTAwMTepgWJ7XHUwMDFlXHUwMDEzrOlcdTAwMDbvc1x1MDAxMEjUmGmULcYmXGIhNeG3tVx1MDAxONSYXHUwMDEyWcGarlwifulaXHUwMDFmktLzXHUwMDAyPZ/Ep2dcdDFWxOe7MUpcdTAwMDA/Uy4hYWCH/KxMVnz7dtiqPlx1MDAxMtG5LE/x49vr06/Iz6vHvf3JXHUwMDEwptDiUl9cdTAwMDSJWSBcdTAwMDTQU2LcXHUwMDAyqbeJMVx1MDAwYkRo21x1MDAwNUq7wLilYFxut1Bcblx1MDAwMaHaXCI0O+DasYfEYiHvPJgo4frhyieAYsihXHUwMDA0nEhcdTAwMWap9tWu/E9HXHUwMDEy4VIwRoRkUlx0IYGWXHUwMDFhgjWlT7qsXHUwMDAy+G0u/+AtXHUwMDAygqeSpcZB6kjauaAtx1x1MDAxNrSI2Vx1MDAwM1x1MDAxNEVbOqZELGGU/l3dSLG9SL+yXHUwMDEzKeP1XCIpRYxDJ2g9LoOGdiNlvH4kpsZcdTAwMDaQy4ZSUvxI/omTlvhzQZF8X6YmqTKNfbY2Q9QnXHUwMDFjXHUwMDA3c41z7L+nWbop4yqmPPVnSv9cdTAwMWSQ7SBcdTAwMDDhtlwiQmTqgpzZnnWRoIjp2UizXUj2+He9v37PqprT91x0gYWjh3rX7MxWXHUwMDE5LZSR7Zgt+9n366q5xnDf3Vx1MDAwNZZZ1zvzXHUwMDBiumaj4d5Nq65cbtXNnjFcZrOjyH5/aLbMnt659G+3Prb6XHUwMDE3xui95dZwbLj7xDia71CqIVx1MDAxYYBS/4RMYVCqXHUwMDE0Zs5cdTAwMTn2SaenyN5cdTAwMDeoXGJSzV7fuFwiq16K1VVYPYuAVU4pXHUwMDE1XHUwMDE0+0YsrMSqkmtUMrzZ3sdfXG7VXHUwMDBiu7Y9qE6r7rhcdTAwMWMq7ChpWtAtPVx08F2TM89cdTAwMGLfXHUwMDEwz7JcdTAwMWRI+2dsXG4peDFkZGHTvpng5b6SVywl00zRvFx1MDAxNs2V8Gi2dySX9lx1MDAwNEtcdTAwMTQwM8qFsvNcdTAwMTNkjHyCuaM/XHUwMDE4nSRcdTAwMDB3TVx1MDAxYT0vcD3t3lx1MDAwZUj9MzbFk7tcdTAwMDSkcneLSD2PIHclwZJcdTAwMDFOXCLJXYikXHUwMDEyvFx1MDAxNOMv2XNmXHUwMDBiglx1MDAxNyVT8K5JqucveFx1MDAwM59lO5j2z5FcdTAwMTRcdTAwMDLT0F5ox3xcdTAwMDQv9Td5U8G7XHUwMDAxnC/Cw1nYPirhXG64XGaDZmrvjyxAgvYzSJzgXZO4bieC1z9NUlxikGKgXHUwMDAx5Ct3WWrvblx1MDAxM6jVXGJyXHUwMDE3XG7ApSAkmm9cblxipUFRtFn+vFx1MDAxZMhdnEy5uyaLnb/cXHJ8lu1A2j+RUlx1MDAxY7nLU4N3a3C+XGZcdTAwMGZnXHUwMDA0qHpcdTAwMTdcdTAwMDKzaHCmXHUwMDA0XHQuWIJWtidO8q5Jb7dcdTAwMWLJ65s0KVx1MDAwNExcdTAwMTVRa1x1MDAxY2Iv9uzukkrIKjb3JJqYz60rwEpGVmS8oWlcdTAwMTaKXHUwMDE1kK1FkMBcYnOiYCtcIkKW2bu0XHUwMDEykjzIVnXLXHUwMDFjNU3jv73Gv5OA3DV57pYmiT6a7278duDrnzIoXGZ8JdNcYlwiXHUwMDAy+GSQgUBqYkVcdTAwMDZcdTAwMTnMNKVZ41x1MDAxNTlkUoG7XG69V+HRi1x1MDAwNZSURTR0XHUwMDE5xIRC9/bKScGuZSuZSVx1MDAwMO2azG5e0HravVx1MDAxZLz6591cdIVXoTFcdTAwMDJcdTAwMTlYhOV7xidcdTAwMTiAV6QhxeqSpVxuciS8XkfAK1TKLlSKUFx1MDAxNLxcImHnmMckeTNCXHUwMDA37sSs34fWNenRvGhdaPWWpmx9d45cdIFVe3dcdIpcdTAwMDT2ST69witFNHtN+YpcdTAwMDTUKUhXgfQmPEhcdTAwMTGYpUuJ6JRCtkbsTlqdXHUwMDE0kJ72k4DRNVx1MDAxYnt5Mepu9HYg6r/HRlx1MDAxOHHKmVx1MDAwNrDwYu59XFxi6Vx1MDAxYlx1MDAxNI6kXHUwMDA2IfSEQKYoXYvS21xiKLWzxKu/aCjFQsFKut9KUmB6a4ySgNM1XHUwMDFiJXlxutDq7Vx1MDAwMNV/hXBcdTAwMThZiuxcXO4gXHUwMDA16lx1MDAwZYB6XHUwMDE3xcOkMFx1MDAwNzmIpvRCXG4g5kyC5E3HJlx1MDAwNKlr9nnYXHUwMDAxUv3XioZBKlFcIjXVer9cdTAwMWWmeniYSqlcZtOokcdQYFx1MDAwMoDgJHm+pGSovWvW+G9V7f3xsdJqX1x1MDAxZlxmqpbqz/3PZUtq+Jhcck9cdTAwMDe8XHUwMDFms4yB8/CzQ+V+wzjo6Vx1MDAwZlx1MDAxZG/f7r+YxiRcdTAwMTeMllx1MDAxZlx1MDAxZlRho8WYLd37+ePn/1x1MDAwMaggtXwifQ==<!-- payload-end --></metadata><defs><style class="style-fonts">
      @font-face { font-family: Excalifont; src: url(https://esm.sh/@excalidraw/excalidraw@0.18.0/dist/prod/fonts/Excalifont/Excalifont-Regular-a88b72a24fb54c9f94e3b5fdaa7481c9.woff2); }</style></defs><rect x="0" y="0" width="496.75" height="1314.3515625" fill="transparent"/><g stroke-linecap="round" transform="translate(284.8671875 30) rotate(0 51.8828125 30)"><path d="M0 0 C26.26 0.17, 53.11 1.55, 103.77 0 M0 0 C27.94 0.54, 53.74 0.1, 103.77 0 M103.77 0 C103.18 18.74, 101.45 36.55, 103.77 60 M103.77 0 C103.57 14.23, 104.93 26.75, 103.77 60 M103.77 60 C65.83 59.53, 28.5 60.55, 0 60 M103.77 60 C78.61 59.59, 54.4 59.38, 0 60 M0 60 C0.2 38.64, 1.51 16.37, 0 0 M0 60 C-0.97 44.75, -1.38 30.1, 0 0" stroke="#1e1e1e" stroke-width="2" fill="none"/></g><g transform="translate(317.86328125 47.5) rotate(0 18.88671875 12.5)"><text x="18.88671875" y="17.619999999999997" font-family="Excalifont, Xiaolai, Segoe UI Emoji" font-size="20px" fill="#1e1e1e" text-anchor="middle" style="white-space: pre;" direction="ltr" dominant-baseline="alphabetic">Start</text></g><g stroke-linecap="round" transform="translate(206.75 140) rotate(0 130 45)"><path d="M0 0 C88.74 0.44, 178.69 -0.55, 260 0 M0 0 C62.85 -2.15, 124.9 -1.94, 260 0 M260 0 C261.69 17.03, 262.01 36.09, 260 90 M260 0 C260.06 32.83, 259.08 64.58, 260 90 M260 90 C197.19 88.33, 134.86 88.15, 0 90 M260 90 C193.64 88.81, 126.79 89.52, 0 90 M0 90 C1.76 67.91, 2.18 42.28, 0 0 M0 90 C-0.98 55.77, -0.63 24.27, 0 0" stroke="#1e1e1e" stroke-width="2" fill="none"/></g><g transform="translate(228.7763671875 172.5) rotate(0 107.9736328125 12.5)"><text x="107.9736328125" y="17.619999999999997" font-family="Excalifont, Xiaolai, Segoe UI Emoji" font-size="20px" fill="#1e1e1e" text-anchor="middle" style="white-space: pre;" direction="ltr" dominant-baseline="alphabetic">Round 1: findTrainingData</text></g><g stroke-linecap="round" transform="translate(284.5703125 280) rotate(0 52.1796875 30)"><path d="M0 0 C28.71 1.32, 55.74 -1.13, 104.36 0 M0 0 C31.23 -0.46, 63.06 -1.5, 104.36 0 M104.36 0 C102.58 22.53, 102.85 43.05, 104.36 60 M104.36 0 C104.87 13.25, 104.62 26.4, 104.36 60 M104.36 60 C81.11 61.68, 58.67 59.35, 0 60 M104.36 60 C80.95 60.58, 58.56 60, 0 60 M0 60 C1.28 46.65, -0.99 31.22, 0 0 M0 60 C-0.63 37.24, 1.15 15.19, 0 0" stroke="#1e1e1e" stroke-width="2" fill="none"/></g><g transform="translate(317.31640625 297.5) rotate(0 19.43359375 12.5)"><text x="19.43359375" y="17.619999999999997" font-family="Excalifont, Xiaolai, Segoe UI Emoji" font-size="20px" fill="#1e1e1e" text-anchor="middle" style="white-space: pre;" direction="ltr" dominant-baseline="alphabetic">label</text></g><g stroke-linecap="round" transform="translate(206.75 390) rotate(0 130 45)"><path d="M0 0 C78 -1.09, 153.03 -0.42, 260 0 M0 0 C101.55 0.65, 202.17 1.11, 260 0 M260 0 C262.12 25.34, 261.67 52.18, 260 90 M260 0 C260.42 22.78, 260.09 43.54, 260 90 M260 90 C193.72 87.92, 124.42 87.7, 0 90 M260 90 C195.91 90.39, 131.21 89.37, 0 90 M0 90 C1.15 62.17, 0.8 37.97, 0 0 M0 90 C0.33 68.77, 1.14 45.33, 0 0" stroke="#1e1e1e" stroke-width="2" fill="none"/></g><g transform="translate(228.7763671875 422.5) rotate(0 107.9736328125 12.5)"><text x="107.9736328125" y="17.619999999999997" font-family="Excalifont, Xiaolai, Segoe UI Emoji" font-size="20px" fill="#1e1e1e" text-anchor="middle" style="white-space: pre;" direction="ltr" dominant-baseline="alphabetic">Round 2: findTrainingData</text></g><g stroke-linecap="round" transform="translate(107.8203125 530) rotate(0 52.1796875 30)"><path d="M0 0 C29.81 -1.85, 61.24 1.15, 104.36 0 M0 0 C37.09 -1.04, 74.84 -0.14, 104.36 0 M104.36 0 C102.33 22.84, 102.32 42.4, 104.36 60 M104.36 0 C105.43 21.85, 103.99 44.43, 104.36 60 M104.36 60 C69.55 59.89, 35.71 59.7, 0 60 M104.36 60 C69.8 59.78, 33.2 60.16, 0 60 M0 60 C-1.38 39.41, 1.24 14.94, 0 0 M0 60 C1.4 44.42, 0.01 27.18, 0 0" stroke="#1e1e1e" stroke-width="2" fill="none"/></g><g transform="translate(140.56640625 547.5) rotate(0 19.43359375 12.5)"><text x="19.43359375" y="17.619999999999997" font-family="Excalifont, Xiaolai, Segoe UI Emoji" font-size="20px" fill="#1e1e1e" text-anchor="middle" style="white-space: pre;" direction="ltr" dominant-baseline="alphabetic">label</text></g><g stroke-linecap="round" transform="translate(30 640) rotate(0 130 45)"><path d="M0 0 C82.84 0.86, 169.04 1.72, 260 0 M0 0 C68.36 0.57, 138.16 0.67, 260 0 M260 0 C261.81 17.54, 259.64 39.56, 260 90 M260 0 C259.21 33.58, 259.38 69.12, 260 90 M260 90 C194.71 87.47, 129.97 89.31, 0 90 M260 90 C184.68 91.24, 109.98 92.16, 0 90 M0 90 C0.61 58.91, -1.88 24.07, 0 0 M0 90 C0.82 71.06, 0.06 52.89, 0 0" stroke="#1e1e1e" stroke-width="2" fill="none"/></g><g transform="translate(52.0263671875 672.5) rotate(0 107.9736328125 12.5)"><text x="107.9736328125" y="17.619999999999997" font-family="Excalifont, Xiaolai, Segoe UI Emoji" font-size="20px" fill="#1e1e1e" text-anchor="middle" style="white-space: pre;" direction="ltr" dominant-baseline="alphabetic">Round 3: findTrainingData</text></g><g stroke-linecap="round" transform="translate(107.8203125 780) rotate(0 52.1796875 30)"><path d="M0 0 C37.89 2.43, 76.79 -0.06, 104.36 0 M0 0 C33.07 0.93, 65.78 0.07, 104.36 0 M104.36 0 C102.4 21.63, 105.38 47.04, 104.36 60 M104.36 0 C103.83 16.14, 104.92 32.58, 104.36 60 M104.36 60 C63.92 58.49, 27.32 59.31, 0 60 M104.36 60 C70.76 59.56, 38.8 60.21, 0 60 M0 60 C1.92 35.67, -0.2 11.62, 0 0 M0 60 C-1.06 41.55, -0.85 22.16, 0 0" stroke="#1e1e1e" stroke-width="2" fill="none"/></g><g transform="translate(140.56640625 797.5) rotate(0 19.43359375 12.5)"><text x="19.43359375" y="17.619999999999997" font-family="Excalifont, Xiaolai, Segoe UI Emoji" font-size="20px" fill="#1e1e1e" text-anchor="middle" style="white-space: pre;" direction="ltr" dominant-baseline="alphabetic">label</text></g><g stroke-linecap="round" transform="translate(265.07421875 890) rotate(0 72.17578125 72.17578125)"><path d="M73 0 C92.96 20.13, 109.07 38.27, 144.35 73 M73 0 C93.12 21.55, 113.06 43, 144.35 73 M144.35 73 C127.63 89.99, 114.3 104.08, 73 144.35 M144.35 73 C118.01 98.12, 92.38 124.15, 73 144.35 M73 144.35 C54.93 127.63, 38.43 110.27, 0 73 M73 144.35 C45.67 117.68, 18.72 90.91, 0 73 M0 73 C16.64 53.65, 34.08 36.1, 73 0 M0 73 C27.4 45.14, 54.51 17.78, 73 0" stroke="#1e1e1e" stroke-width="2" fill="none"/></g><g transform="translate(307.7138671875 937.087890625) rotate(0 29.4482421875 25)"><text x="29.4482421875" y="17.619999999999997" font-family="Excalifont, Xiaolai, Segoe UI Emoji" font-size="20px" fill="#1e1e1e" text-anchor="middle" style="white-space: pre;" direction="ltr" dominant-baseline="alphabetic">Satisfie</text><text x="29.4482421875" y="42.62" font-family="Excalifont, Xiaolai, Segoe UI Emoji" font-size="20px" fill="#1e1e1e" text-anchor="middle" style="white-space: pre;" direction="ltr" dominant-baseline="alphabetic">d?</text></g><g stroke-linecap="round" transform="translate(285.328125 1114.3515625) rotate(0 51.421875 30)"><path d="M0 0 C25.81 -1.61, 49.61 -1.1, 102.84 0 M0 0 C22.1 -0.87, 43.74 -0.73, 102.84 0 M102.84 0 C103.87 22.99, 101.91 43.82, 102.84 60 M102.84 0 C102.54 14.06, 103.05 28.52, 102.84 60 M102.84 60 C77.24 59.22, 50.44 61.02, 0 60 M102.84 60 C76.81 60.62, 50.33 59.48, 0 60 M0 60 C-0.99 35.9, -0.29 17.28, 0 0 M0 60 C-0.02 35.88, 0.53 12.33, 0 0" stroke="#1e1e1e" stroke-width="2" fill="none"/></g><g transform="translate(318.4248046875 1131.8515625) rotate(0 18.3251953125 12.5)"><text x="18.3251953125" y="17.619999999999997" font-family="Excalifont, Xiaolai, Segoe UI Emoji" font-size="20px" fill="#1e1e1e" text-anchor="middle" style="white-space: pre;" direction="ltr" dominant-baseline="alphabetic">train</text></g><g stroke-linecap="round" transform="translate(290.35546875 1224.3515625) rotate(0 46.39453125 30)"><path d="M0 0 C27.39 -0.28, 55.97 -2.34, 92.79 0 M0 0 C31.54 0.2, 64.1 -0.02, 92.79 0 M92.79 0 C94.13 13, 93.62 25.83, 92.79 60 M92.79 0 C92.03 13.5, 91.92 25.11, 92.79 60 M92.79 60 C71.85 60.7, 52.93 59.55, 0 60 M92.79 60 C70.09 61.49, 45.62 61.31, 0 60 M0 60 C-1.59 37.34, 1.98 16.1, 0 0 M0 60 C-0.74 45.58, -0.8 31.42, 0 0" stroke="#1e1e1e" stroke-width="2" fill="none"/></g><g transform="translate(320.6416015625 1241.8515625) rotate(0 16.1083984375 12.5)"><text x="16.1083984375" y="17.619999999999997" font-family="Excalifont, Xiaolai, Segoe UI Emoji" font-size="20px" fill="#1e1e1e" text-anchor="middle" style="white-space: pre;" direction="ltr" dominant-baseline="alphabetic">End</text></g><g stroke-linecap="round"><g transform="translate(336.75 90.5) rotate(0 0 22.5)"><path d="M-0.19 0.07 C-0.28 4.02, -0.12 16.51, -0.05 24 C0.03 31.49, 0.21 41.57, 0.27 44.99 M0.72 -0.37 C0.51 3.6, -0.39 16.78, -0.5 24.44 C-0.61 32.1, -0.13 42.2, 0.06 45.58" stroke="#1e1e1e" stroke-width="2" fill="none"/></g><g transform="translate(336.75 90.5) rotate(0 0 22.5)"><path d="M-3.91 36.14 C-2.27 39.79, -1.25 43.77, 0.06 45.58 M-3.91 36.14 C-2.49 38.78, -1.37 41.6, 0.06 45.58" stroke="#1e1e1e" stroke-width="2" fill="none"/></g><g transform="translate(336.75 90.5) rotate(0 0 22.5)"><path d="M3.09 35.79 C2 39.57, 0.29 43.68, 0.06 45.58 M3.09 35.79 C2.42 38.51, 1.46 41.43, 0.06 45.58" stroke="#1e1e1e" stroke-width="2" fill="none"/></g></g><mask/><g stroke-linecap="round"><g transform="translate(336.75 230.5) rotate(0 0 22.5)"><path d="M0.07 -0.05 C-0.07 4.11, -0.49 17.21, -0.5 24.77 C-0.51 32.34, -0.01 41.9, -0.01 45.34 M-0.56 -0.55 C-0.56 3.47, 0.44 16.45, 0.47 23.95 C0.51 31.45, -0.18 41.03, -0.36 44.45" stroke="#1e1e1e" stroke-width="2" fill="none"/></g><g transform="translate(336.75 230.5) rotate(0 0 22.5)"><path d="M-3.29 34.63 C-2.31 37.66, -0.97 41.62, -0.36 44.45 M-3.29 34.63 C-2.47 38.32, -1.41 41.6, -0.36 44.45" stroke="#1e1e1e" stroke-width="2" fill="none"/></g><g transform="translate(336.75 230.5) rotate(0 0 22.5)"><path d="M3.71 35.04 C2.2 37.93, 1.04 41.74, -0.36 44.45 M3.71 35.04 C2 38.61, 0.52 41.74, -0.36 44.45" stroke="#1e1e1e" stroke-width="2" fill="none"/></g></g><mask/><g stroke-linecap="round"><g transform="translate(336.75 340.5) rotate(0 0 22.5)"><path d="M-0.05 -0.5 C0.03 3.57, 0.21 16.99, 0.27 24.49 C0.34 31.99, 0.32 41.16, 0.34 44.51 M-0.73 0.43 C-0.69 4.59, -0.17 17.78, -0.02 25.18 C0.13 32.59, 0.04 41.58, 0.17 44.86" stroke="#1e1e1e" stroke-width="2" fill="none"/></g><g transform="translate(336.75 340.5) rotate(0 0 22.5)"><path d="M-3.49 35.29 C-2.98 38.09, -1.55 40.7, 0.17 44.86 M-3.49 35.29 C-2.54 37.14, -2.04 39.54, 0.17 44.86" stroke="#1e1e1e" stroke-width="2" fill="none"/></g><g transform="translate(336.75 340.5) rotate(0 0 22.5)"><path d="M3.52 35.18 C2.17 38, 1.74 40.64, 0.17 44.86 M3.52 35.18 C2.99 37.02, 2 39.45, 0.17 44.86" stroke="#1e1e1e" stroke-width="2" fill="none"/></g></g><mask/><g stroke-linecap="round"><g transform="translate(223.125 480.5) rotate(0 -31.5625 22.5)"><path d="M-1.09 0.59 C-11.64 4.82, -52.63 17.69, -63.15 25.25 C-73.66 32.8, -64.04 42.53, -64.19 45.94 M0.53 -0.14 C-10.19 3.75, -53.71 16.14, -64.1 23.52 C-74.5 30.89, -61.82 40.76, -61.85 44.09" stroke="#1e1e1e" stroke-width="2" fill="none"/></g><g transform="translate(223.125 480.5) rotate(0 -31.5625 22.5)"><path d="M-69.51 37.28 C-66.62 39.46, -64.1 40.7, -61.85 44.09 M-69.51 37.28 C-67.05 39.54, -63.39 42.81, -61.85 44.09" stroke="#1e1e1e" stroke-width="2" fill="none"/></g><g transform="translate(223.125 480.5) rotate(0 -31.5625 22.5)"><path d="M-63.35 33.95 C-62.38 37.11, -61.78 39.39, -61.85 44.09 M-63.35 33.95 C-63.24 37.5, -61.91 42.03, -61.85 44.09" stroke="#1e1e1e" stroke-width="2" fill="none"/></g></g><mask/><g stroke-linecap="round"><g transform="translate(160 590.5) rotate(0 0 22.5)"><path d="M0.27 -0.01 C0.34 4.08, 0.32 16.58, 0.34 24.01 C0.37 31.45, 0.44 41.16, 0.43 44.59 M-0.25 -0.49 C-0.23 3.69, -0.01 16.89, 0.09 24.46 C0.18 32.04, 0.22 41.57, 0.3 44.97" stroke="#1e1e1e" stroke-width="2" fill="none"/></g><g transform="translate(160 590.5) rotate(0 0 22.5)"><path d="M-3.34 35.39 C-2.33 38.5, -1.71 41.37, 0.3 44.97 M-3.34 35.39 C-2.63 37.75, -1.46 39.66, 0.3 44.97" stroke="#1e1e1e" stroke-width="2" fill="none"/></g><g transform="translate(160 590.5) rotate(0 0 22.5)"><path d="M3.67 35.29 C2.63 38.44, 1.21 41.35, 0.3 44.97 M3.67 35.29 C2.8 37.65, 2.39 39.57, 0.3 44.97" stroke="#1e1e1e" stroke-width="2" fill="none"/></g></g><mask/><g stroke-linecap="round"><g transform="translate(160 730.5) rotate(0 0 22.5)"><path d="M-0.01 0.34 C-0.01 4.45, -0.42 17.44, -0.49 24.93 C-0.55 32.42, -0.42 42.01, -0.41 45.31 M-0.68 0.04 C-0.47 3.98, 0.27 16.79, 0.5 24.19 C0.73 31.58, 0.86 40.92, 0.69 44.4" stroke="#1e1e1e" stroke-width="2" fill="none"/></g><g transform="translate(160 730.5) rotate(0 0 22.5)"><path d="M-2.65 34.71 C-1.61 36.28, -0.83 38.37, 0.69 44.4 M-2.65 34.71 C-1.31 38.37, -0.37 41.75, 0.69 44.4" stroke="#1e1e1e" stroke-width="2" fill="none"/></g><g transform="translate(160 730.5) rotate(0 0 22.5)"><path d="M4.36 34.83 C3.94 36.37, 3.25 38.44, 0.69 44.4 M4.36 34.83 C3.21 38.43, 1.65 41.77, 0.69 44.4" stroke="#1e1e1e" stroke-width="2" fill="none"/></g></g><mask/><g stroke-linecap="round"><g transform="translate(160.5 840.5) rotate(0 62.58699999999999 46.822)"><path d="M0.75 -1.06 C0.72 2.88, -20.49 7.97, 0.44 23.6 C21.37 39.23, 105.57 80.92, 126.34 92.74 M-0.32 1 C-0.47 5.06, -21.06 9.23, -0.02 24.66 C21.02 40.1, 105.1 82.29, 125.93 93.58" stroke="#1e1e1e" stroke-width="2" fill="none"/></g><g transform="translate(160.5 840.5) rotate(0 62.58699999999999 46.822)"><path d="M101.15 90.27 C108.04 92.84, 116.96 93.55, 125.93 93.58 M101.15 90.27 C107.53 90.59, 112.84 91.01, 125.93 93.58" stroke="#1e1e1e" stroke-width="2" fill="none"/></g><g transform="translate(160.5 840.5) rotate(0 62.58699999999999 46.822)"><path d="M109.07 75.12 C113.19 83.03, 119.35 89.03, 125.93 93.58 M109.07 75.12 C113.59 78.91, 117.13 82.73, 125.93 93.58" stroke="#1e1e1e" stroke-width="2" fill="none"/></g></g><mask/><g mask="url(#mask-ibC3XKLjJD6vDUUQxGD1e)" stroke-linecap="round"><g transform="translate(336.75 889.5) rotate(0 0 -202.5)"><path d="M-1.06 0.94 C-1.21 -3.16, -0.93 -10.32, -0.9 -23.83 C-0.87 -37.35, -1.2 -61.86, -0.9 -80.14 C-0.61 -98.42, 0.78 -112.9, 0.88 -133.51 C0.99 -154.12, -0.03 -180.13, -0.29 -203.81 C-0.55 -227.48, -0.65 -254.64, -0.69 -275.54 C-0.72 -296.45, -0.5 -311.23, -0.49 -329.24 C-0.48 -347.26, -0.57 -370.91, -0.62 -383.63 C-0.66 -396.34, -0.7 -401.85, -0.75 -405.52 M0.58 0.39 C0.81 -4.12, 1.18 -12.35, 1.34 -25.61 C1.49 -38.86, 1.48 -60.83, 1.52 -79.16 C1.56 -97.48, 1.56 -114.89, 1.59 -135.54 C1.63 -156.19, 1.95 -180.06, 1.75 -203.05 C1.54 -226.04, 0.67 -252.24, 0.37 -273.47 C0.06 -294.71, -0.32 -312.11, -0.1 -330.45 C0.12 -348.79, 1.53 -371.33, 1.69 -383.51 C1.85 -395.69, 1.23 -399.7, 0.84 -403.52" stroke="#1e1e1e" stroke-width="2" fill="none"/></g><g transform="translate(336.75 889.5) rotate(0 0 -202.5)"><path d="M5.32 -394.3 C4.73 -397.86, 3.16 -400.61, 0.84 -403.52 M5.32 -394.3 C4.02 -396.24, 2.75 -399.26, 0.84 -403.52" stroke="#1e1e1e" stroke-width="2" fill="none"/></g><g transform="translate(336.75 889.5) rotate(0 0 -202.5)"><path d="M-1.65 -393.58 C-0.17 -397.29, 0.34 -400.26, 0.84 -403.52 M-1.65 -393.58 C-1.23 -395.76, -0.79 -398.95, 0.84 -403.52" stroke="#1e1e1e" stroke-width="2" fill="none"/></g></g><mask id="mask-ibC3XKLjJD6vDUUQxGD1e"><rect x="0" y="0" fill="#fff" width="436.75" height="1394.5"/><rect x="324.5283203125" y="672.5" fill="#000" width="24.443359375" height="25" opacity="1"/></mask><g transform="translate(324.5283203125 672.5) rotate(0 12.577544848611865 14.707758050784435)"><text x="12.2216796875" y="17.619999999999997" font-family="Excalifont, Xiaolai, Segoe UI Emoji" font-size="20px" fill="#1e1e1e" text-anchor="middle" style="white-space: pre;" direction="ltr" dominant-baseline="alphabetic">No</text></g><g mask="url(#mask-rsqK5QqAGvxANZjG8GBnY)" stroke-linecap="round"><g transform="translate(324.461 1022.063) rotate(0 -5.868000000000023 44.003499999999974)"><path d="M0.94 -0.9 C-1.05 7.84, -10.96 36.42, -11.2 51.39 C-11.44 66.35, -2.56 82.84, -0.51 88.89 M-0.03 1.24 C-2.18 10.2, -11.53 38.15, -11.8 52.45 C-12.06 66.75, -3.89 80.98, -1.61 87.01" stroke="#1e1e1e" stroke-width="2" fill="none"/></g><g transform="translate(324.461 1022.063) rotate(0 -5.868000000000023 44.003499999999974)"><path d="M-14.62 73.39 C-11.44 79.27, -6.73 82.15, -1.61 87.01 M-14.62 73.39 C-9.1 77.97, -5.6 83.22, -1.61 87.01" stroke="#1e1e1e" stroke-width="2" fill="none"/></g><g transform="translate(324.461 1022.063) rotate(0 -5.868000000000023 44.003499999999974)"><path d="M-2.82 68.21 C-3.96 76.06, -3.53 80.82, -1.61 87.01 M-2.82 68.21 C-1.67 74.7, -2.58 81.88, -1.61 87.01" stroke="#1e1e1e" stroke-width="2" fill="none"/></g></g><mask id="mask-rsqK5QqAGvxANZjG8GBnY"><rect x="0" y="0" fill="#fff" width="436.459" height="1210.07"/><rect x="298.03833593750005" y="1061.8519999999999" fill="#000" width="29.111328125" height="25" opacity="1"/></mask><g transform="translate(298.0383359375 1061.852) rotate(0 20.989564479901162 4.206139495268303)"><text x="14.5556640625" y="17.619999999999997" font-family="Excalifont, Xiaolai, Segoe UI Emoji" font-size="20px" fill="#1e1e1e" text-anchor="middle" style="white-space: pre;" direction="ltr" dominant-baseline="alphabetic">Yes</text></g><g stroke-linecap="round"><g transform="translate(331.795 1174.852) rotate(0 -2.522500000000008 22.531999999999925)"><path d="M-0.41 0.31 C-1.24 4.27, -5.31 16.67, -5.46 24.21 C-5.61 31.74, -1.91 41.99, -1.31 45.52 M0.38 -0.01 C-0.24 3.98, -4.13 17.31, -4.44 24.76 C-4.74 32.21, -1.89 41.42, -1.45 44.69" stroke="#1e1e1e" stroke-width="2" fill="none"/></g><g transform="translate(331.795 1174.852) rotate(0 -2.522500000000008 22.531999999999925)"><path d="M-6.92 35.82 C-5.44 37.33, -4.85 39.98, -1.45 44.69 M-6.92 35.82 C-4.99 38.97, -2.85 42.65, -1.45 44.69" stroke="#1e1e1e" stroke-width="2" fill="none"/></g><g transform="translate(331.795 1174.852) rotate(0 -2.522500000000008 22.531999999999925)"><path d="M0.06 34.38 C0.07 36.16, -0.82 39.12, -1.45 44.69 M0.06 34.38 C-0.68 38.1, -1.21 42.33, -1.45 44.69" stroke="#1e1e1e" stroke-width="2" fill="none"/></g></g><mask/><g mask="url(#mask-8OUG9tEctpE8YbfQMjxrI)" stroke-linecap="round"><g transform="translate(349.039 1022.063) rotate(0 5.868000000000023 44.003499999999974)"><path d="M0.67 -0.9 C2.38 8.11, 11.2 38.4, 11.23 53.17 C11.26 67.94, 2.64 82.03, 0.86 87.72 M-0.44 1.24 C1.59 10, 13.43 36.91, 13.6 51.51 C13.78 66.12, 2.69 82.79, 0.62 88.88" stroke="#1e1e1e" stroke-width="2" fill="none"/></g><g transform="translate(349.039 1022.063) rotate(0 5.868000000000023 44.003499999999974)"><path d="M2.3 70.12 C0.11 76.22, 2.28 85.88, 0.62 88.88 M2.3 70.12 C1.13 74.9, 1.69 79.97, 0.62 88.88" stroke="#1e1e1e" stroke-width="2" fill="none"/></g><g transform="translate(349.039 1022.063) rotate(0 5.868000000000023 44.003499999999974)"><path d="M13.97 75.59 C7.4 79.69, 5.16 87.28, 0.62 88.88 M13.97 75.59 C9.54 78.8, 6.88 82.36, 0.62 88.88" stroke="#1e1e1e" stroke-width="2" fill="none"/></g></g><mask id="mask-8OUG9tEctpE8YbfQMjxrI"><rect x="0" y="0" fill="#fff" width="461.037" height="1210.07"/><rect x="346.35033593749995" y="1061.8519999999999" fill="#000" width="29.111328125" height="25" opacity="1"/></mask><g transform="translate(346.3503359375 1061.852) rotate(0 9.270695202435803 4.200697344194964)"><text x="14.5556640625" y="17.619999999999997" font-family="Excalifont, Xiaolai, Segoe UI Emoji" font-size="20px" fill="#1e1e1e" text-anchor="middle" style="white-space: pre;" direction="ltr" dominant-baseline="alphabetic">Yes</text></g><g mask="url(#mask-U_9uUlIzRF9CkWpElbI1G)" stroke-linecap="round"><g transform="translate(358.568 911.818) rotate(0 10.841000000000008 -213.9605)"><path d="M-0.9 -0.64 C3.01 -8.39, 18.85 -29.08, 22.57 -45.82 C26.28 -62.57, 21.65 -82.45, 21.39 -101.13 C21.13 -119.8, 21.03 -136.96, 21 -157.86 C20.96 -178.77, 21.18 -203.55, 21.19 -226.56 C21.21 -249.57, 21.11 -274.98, 21.06 -295.94 C21.02 -316.91, 20.98 -333.76, 20.93 -352.34 C20.88 -370.93, 22.71 -394.83, 20.76 -407.45 C18.81 -420.07, 11.19 -424.8, 9.22 -428.06 M0.82 1.64 C4.73 -6.49, 18.81 -29.97, 22.08 -47.43 C25.36 -64.88, 20.67 -84.79, 20.47 -103.1 C20.27 -121.42, 20.44 -136.82, 20.88 -157.31 C21.33 -177.8, 22.92 -202.83, 23.13 -226.03 C23.34 -249.24, 22.48 -275.81, 22.15 -296.53 C21.83 -317.24, 21.05 -331.7, 21.18 -350.3 C21.3 -368.9, 25.14 -394.93, 22.91 -408.13 C20.68 -421.33, 9.97 -426.38, 7.79 -429.52" stroke="#1e1e1e" stroke-width="2" fill="none"/></g><g transform="translate(358.568 911.818) rotate(0 10.841000000000008 -213.9605)"><path d="M19.21 -424.75 C15.96 -424.99, 15.07 -427.28, 7.79 -429.52 M19.21 -424.75 C14.9 -426.42, 10.75 -427.81, 7.79 -429.52" stroke="#1e1e1e" stroke-width="2" fill="none"/></g><g transform="translate(358.568 911.818) rotate(0 10.841000000000008 -213.9605)"><path d="M13.47 -418.52 C11.48 -420.13, 11.88 -423.81, 7.79 -429.52 M13.47 -418.52 C11.25 -422.37, 9.15 -425.99, 7.79 -429.52" stroke="#1e1e1e" stroke-width="2" fill="none"/></g></g><mask id="mask-U_9uUlIzRF9CkWpElbI1G"><rect x="0" y="0" fill="#fff" width="480.25" height="1439.739"/><rect x="368.0283203125" y="672.5" fill="#000" width="24.443359375" height="25" opacity="1"/></mask><g transform="translate(368.0283203125 672.5) rotate(0 2.090266752907212 25.380148218367253)"><text x="12.2216796875" y="17.619999999999997" font-family="Excalifont, Xiaolai, Segoe UI Emoji" font-size="20px" fill="#1e1e1e" text-anchor="middle" style="white-space: pre;" direction="ltr" dominant-baseline="alphabetic">No</text></g><g stroke-linecap="round"><g transform="translate(341.705 1174.852) rotate(0 2.522500000000008 22.531999999999925)"><path d="M-0.29 0.41 C0.57 4.54, 5.11 16.98, 5.5 24.37 C5.89 31.76, 2.74 41.34, 2.03 44.75 M0.56 0.14 C1.36 4.38, 5.09 17.49, 5.3 25 C5.52 32.51, 2.55 41.82, 1.85 45.19" stroke="#1e1e1e" stroke-width="2" fill="none"/></g><g transform="translate(341.705 1174.852) rotate(0 2.522500000000008 22.531999999999925)"><path d="M0.74 34.83 C1.48 38.95, 1.36 42.5, 1.85 45.19 M0.74 34.83 C1.02 37.21, 1.42 39.7, 1.85 45.19" stroke="#1e1e1e" stroke-width="2" fill="none"/></g><g transform="translate(341.705 1174.852) rotate(0 2.522500000000008 22.531999999999925)"><path d="M7.66 36.54 C5.94 40.03, 3.37 42.98, 1.85 45.19 M7.66 36.54 C6.26 38.5, 4.99 40.57, 1.85 45.19" stroke="#1e1e1e" stroke-width="2" fill="none"/></g></g><mask/></svg>