<svg version="1.1" xmlns="http://www.w3.org/2000/svg" viewBox="0 0 1072.0078125 330" width="2144.015625" height="660"><!-- svg-source:excalidraw --><metadata><!-- payload-type:application/vnd.excalidraw+json --><!-- payload-version:2 --><!-- payload-start -->eyJ2ZXJzaW9uIjoiMSIsImVuY29kaW5nIjoiYnN0cmluZyIsImNvbXByZXNzZWQiOnRydWUsImVuY29kZWQiOiJ4nO2ba1PiyFx1MDAxYcffz6eg2DfnVI3Zvl/mXHUwMDFkICreXHUwMDE1XHUwMDFkR3e3qFx1MDAwMC1EQ5JJgopbfvfTQSVcdTAwMTBcdTAwMDImjrCcXHUwMDE1rLKku9Pp2+/fz9P9+PeXQqFcdTAwMThcdTAwMGU8VfxWKKqHlmlbbd+8L36N0u+UXHUwMDFmWK6js9Dwe+D2/dawZDdcZr3g2++/m55ndKyw6bq3RsvtPT+mbNVTTlx1MDAxOOiCf+jvhcLfw986x2pHXHUwMDBmb9j391cn25vi9MC/lThsXHUwMDA3l7X94aPDQq+t8VUrNJ2OreKsXHUwMDA3nS5G31x1MDAwNlx1MDAxM9/urXbY1SlcdTAwMWMgXHUwMDAzXHUwMDAwLiCio7yusjrdUGdCXGZGic91fyvEKUHou7eq4tquXHUwMDFmNeA3qKKf+PVNs3Xb8d2+01x1MDAxZZVcdH3TXHQ809f9jctdW7ZdXHUwMDBmXHUwMDA3w9r1oOkhLSbecfHSWJRIn/WUfmmn66ggXHUwMDFhUzhKdT2zZYXRMEBcdTAwMTD3XCJqoVdrx8P/XFx/v9nxTa/bXHUwMDE4ZjeOXHUwMDFj1fCVfsudajd046NqXlxu/1x1MDAxNffDN3uqXHUwMDE2zZnTt+1RsuW0VTRcdTAwMTNFXHUwMDEzTLTQab+0cKJ0oFRUXHUwMDAz54BhSDBcdTAwMWVlJFbXeNqh61xm11x1MDAxOSRcdTAwMDBIKqiU8cuDTb2+wmGd16ZcdTAwMWSoeHaiXHUwMDE2VJNrb3z9TSyvUD3EUza2Oln1qnRuXHUwMDBljuqmfd49KT8q62abXHUwMDE2R+Wepkap77XN5/ZAzjlcdTAwMTJEYixcYlx1MDAxZuXblnObXHUwMDFjXHUwMDE0223dxl1cdTAwMTimPn1NY2V7f1Dds6pcdTAwMWJHt/iuc1xce9hcdTAwMDYmvcrMXG6hXHUwMDA2ncCF4CleIFx1MDAxNrN5YWtcXD5cdTAwMTBcdTAwMTeYXHUwMDFkXHUwMDE3glx1MDAwNaSQXHSegstcdTAwMTRCI1xcXHUwMDEwp1x1MDAwNELC8PJw+XneOmGNy9NcdTAwMDFcdTAwMWVs7+JcdTAwMTM5ODzYvFx1MDAxZsPla3q1z1x1MDAwZjd+etfeXVC+2PzxgMPbR3W417uafMvr+03fd+9zY0jhx2BcYvdkZUeqRlx1MDAxYm1UvJ67cXzj38jMXHUwMDE4XCIhXGap5zJcdTAwMTOLXGajNYuLZ1x1MDAxMWVnXHUwMDExMlx1MDAwMCHkjKftXWRcdTAwMTaMet/CkEvEl8fiTmfvx06IzLM7q3yz7ZRbpyewtlx1MDAwNFx1MDAxNufWy2+be5cnP31aY0d+w673KebhKjJeeXBcdTAwMWUvrtpOaSDcSuWkctyrIZyZcYqxgVx1MDAxMKNcZmWgXFxcdTAwMWFrxpfAOM7BOGdcYlxuSiFMYXz2hitcdIdcdTAwMWPJZdqn0n88q1xyglx1MDAwN94wxVYvKNW7j03xr4PxcKtcXKudPD5cXN08qPPqYblcdTAwMDNcdTAwMWX2rzPDyFx1MDAxOZiyaYfrcFx1MDAxYUY0hlxc7Caiz8VhXHUwMDBlpkh2plx1MDAxOJJcdTAwMTRcdTAwMTBcdTAwMDRyIUVcdTAwMDUhnIslWrCD6mZwet+8cI/qN7Be2e05XHUwMDE3ZCcrUFx1MDAwN010ed/abf3cdvY3+mf1QVn9aK5cIlC0/71EgXVCdlx1MDAwM6/asH9cdTAwMWNcdTAwMWNcdTAwMWSR7Fx1MDAxNuxMoMT0XHUwMDAxTCpRclxy1FxmoGh2oFx1MDAxMND7XHUwMDEzXHUwMDA1XHUwMDEyyjxEIe1cdTAwMTVqXHUwMDBiXHUwMDE20+UhdXhdu6iS5vHdtTpsty3bJeIq+NchNd9iTjRyXHUwMDAyJyiIxmnyJJOnXHUwMDE4ilx1MDAwMFx1MDAxOIRcdTAwMDE5+ohpsD5cdTAwMTdXXHUwMDBiNlx1MDAxOFk6i/FcIn2dVPSS8pREXHUwMDE0Yo70llx1MDAwN0BcdTAwMWGiM31FiFx1MDAxMdVcXDOwRDuycixcdTAwMGZuN0FwXHUwMDAwb1x1MDAwZbe+XHUwMDFmd7+HJf9ysSyNkj3XSrb9j7FcdTAwMTaC8eaC0d9/fU0tTZF2vOTYJ9fTs1x1MDAxOUs8PjVcdTAwMWW2XHUwMDE5hFx1MDAxNbfXs0I9KsdRj6ZkOzT9sKyXl+V0JpfRy1x1MDAxNUktw1x1MDAxOW+0bt1WP1x1MDAxOCc7osL0opmYWofKab/9xvnHWXPfiFxyPUacgtdcdTAwMGabJiHqdSlcdTAwMTK9rjKnYNPtXHUwMDFiz0uqo7Kb7n0m9Z3vysxTX4KEXHUwMDAxQSxVc9SXpTnpa8n9QMnlvyy5mGEotVx1MDAxZaVcdTAwMWSVz1ZcXIklYmSJekvx9o57ozxcXHm8OFx1MDAwZlvVnto9XHUwMDFj/J/qLYZoJFx1MDAwMLF7l+npXHUwMDA0VYlnXHUwMDE2J7K/IHnvXHUwMDE02fnniW+LbHSU+DzCiPxjKjvfXHUwMDE4n6eyQoIpXHUwMDFiXHUwMDE3Yjx2IfkqtCnuXCKNwf1cZlx1MDAxYZtDL8Wvm6hScIRcdTAwMTCkua4zIFx1MDAxM0xcdTAwMDKM2bskc/VVbaI0klx1MDAwNs31XHUwMDAwJcvQsPmHomOKslx1MDAxMaFcdTAwMTdJMyFcYlx1MDAwM84k4phKQPlY2V/StvmnSePalmxcYmVcdTAwMTRiSTI0JJfCTeZllrf0YI8peZvY05+vdKkwXHUwMDEwxpJcdTAwMDOm3T0hRVxmzqyDZlx1MDAwMFxyijV7UKMnXHUwMDEwiEuMVG/M2PxcZqq3YMtSpitlarRcdTAwMDWERKbf786+++GMQD397zpWW4hcdTAwMWVcdTAwMGVXqe552vDFw+Y6Yd16XHUwMDFj7lx1MDAxMGBcInXL7Fl2NF90osaSbXWigSi2dFXKL46PR2i1THtUIHS9OLelazQtR/m1LDF/rm91LMe0z7J0weyH7qlcbp47XHUwMDEx+n01PlhqZ3SJYyA6XHUwMDA3/fTAlVxm6DNpXGKAtf8gtFx1MDAxM6FldZJ8XHUwMDA2UixcdTAwMWMhXHKsLTqMXHUwMDA0g8PwjjX7hcJr/Ytgv5SdfcmFxJSnWkOz4Vx1MDAwN5RcdTAwMTJcdTAwMDGQXFw9+k9Vy/XbhdJSkO9Z7fb4XVGC+jeiXHUwMDE3k9RPN/1jUE+Pi8mAuvZzXHJtOUFcdDGhXGJcdTAwMTKRgXVcdI3oNFx1MDAxMUlcdTAwMDEk5Vx1MDAwMMeTuWZ9IayXc1xcoElcdTAwMTLdR+NcXFGV2sjj2j5YWdLLq0D6XHUwMDFiXHUwMDAxkjNIL3806enBMVx1MDAxOUinNIq8jPxiJIHe3eOJmb2pXHUwMDBig1C9qVx1MDAwM1x1MDAwMjXu4zfha9BcdTAwMTdcdTAwMDJ6JTvoWNtYQHubuUJPXHUwMDEw0FNPXHUwMDEwXHUwMDFik+xcdTAwMTVDvbJcbqi/XHUwMDExJzlcdTAwMDP1ykejnlx1MDAxZbaTXHUwMDAxdc41zYRcdTAwMGLtg4thTMtcdTAwMDTqJCWgXHUwMDA1XHUwMDBiQ0IpXHUwMDE4XHUwMDEw2ugnmKfcXHTRz3UplIPazVx1MDAxY0GYUvtUXHUwMDFjIJjvv1x1MDAxZVx1MDAwNMSUwHdeni9cdTAwMTTb6NSv7+ih/Fa4alT2z+tn1dM/nf+0unqNqKCgzFa34Ped/65cdTAwMDLWb0RcXCaxTutaYV7PPob69MiiLNTr7ZpD/ZvrXHUwMDFmXHUwMDAyJ+8lXHUwMDEwSKFcdTAwMWUgg3LNu0RcdTAwMDRDRlx1MDAwMFtTn536anbqOWFaYbnM54BcdTAwMTOCqfaw2Lv+vWKh0FcjXHUwMDBlPd9cbpRGw3I6nUJtU0NcdTAwMWaEZtNWXHUwMDA1s+W7QVx1MDAxMLFcdTAwMTGsXHUwMDA09m/EhSaxT+tcXGF+3z5cdTAwMDb89HClXGbg693E4HqpQElxMnw11a7HzJDartf7SepOv7bpP9Km38phXHUwMDFkaDHmXHUwMDEy8nxGPdSmXlx1MDAxNFFO31x1MDAxNVG+UKEobayE6/5GXHUwMDE4a1JcdTAwMDEmWv0xbKeHxmRgW+9cdTAwMWNcdTAwMDZcdTAwMDFcdTAwMDQgwOmQ70x0aymQVE/gmvBlXHUwMDEwvp2DcFx1MDAwNjBcdTAwMTN6QnNcdTAwMTEuXHUwMDEx45Qxvnrmf3ljJVx1MDAxY/Y3XCIlk4BPtDo34F9eXHUwMDE2R9H0vHqoR7T4XHUwMDFhRaBcdTAwMTed1U6MwHNaqLy498OkXHUwMDAzt62qTmRUJEa3eGep+/J8xr686EzEmFx1MDAxYVx1MDAwNsc8fXn6XHUwMDFm9UQ/MCJ9<!-- payload-end --></metadata><defs><style class="style-fonts">
      @font-face { font-family: Excalifont; src: url(https://esm.sh/@excalidraw/excalidraw@0.18.0/dist/prod/fonts/Excalifont/Excalifont-Regular-a88b72a24fb54c9f94e3b5fdaa7481c9.woff2); }</style></defs><rect x="0" y="0" width="1072.0078125" height="330" fill="transparent"/><g stroke-linecap="round" transform="translate(30 30) rotate(0 351.00390625 65)"><path d="M0 0 C168.72 -1.07, 338.32 -2.33, 702.01 0 M0 0 C270.02 -1.23, 540.39 -0.52, 702.01 0 M702.01 0 C699.02 34.22, 700.77 64.58, 702.01 130 M702.01 0 C703.69 30.43, 703.68 58.82, 702.01 130 M702.01 130 C434.35 128.05, 166.47 128.25, 0 130 M702.01 130 C456.72 131.56, 211.83 131.9, 0 130 M0 130 C-2.41 103.26, -2.67 78.48, 0 0 M0 130 C-0.58 82.2, -0.03 34.04, 0 0" stroke="#1e1e1e" stroke-width="2" fill="none"/></g><g transform="translate(280.23397064208984 35) rotate(0 100.76993560791016 12.5)"><text x="100.76993560791016" y="17.619999999999997" font-family="Excalifont, Xiaolai, Segoe UI Emoji" font-size="20px" fill="#1e1e1e" text-anchor="middle" style="white-space: pre;" direction="ltr" dominant-baseline="alphabetic">One_resolved_entity</text></g><g stroke-linecap="round" transform="translate(67.5 65) rotate(0 69.00390625 30)"><path d="M0 0 C50 1.13, 95.04 2.27, 138.01 0 M0 0 C44.74 0.41, 92.13 0.56, 138.01 0 M138.01 0 C140.38 12.93, 138.36 24.75, 138.01 60 M138.01 0 C138.48 23.97, 137.32 47.78, 138.01 60 M138.01 60 C87.66 60.82, 37.45 61.34, 0 60 M138.01 60 C95.42 60.67, 54.66 58.91, 0 60 M0 60 C0.44 36.65, 2.37 18.53, 0 0 M0 60 C-0.11 40.35, -0.32 20.78, 0 0" stroke="#1e1e1e" stroke-width="2" fill="none"/></g><g transform="translate(91.80393981933594 82.5) rotate(0 44.69996643066406 12.5)"><text x="44.69996643066406" y="17.619999999999997" font-family="Excalifont, Xiaolai, Segoe UI Emoji" font-size="20px" fill="#1e1e1e" text-anchor="middle" style="white-space: pre;" direction="ltr" dominant-baseline="alphabetic">Record A</text></g><g stroke-linecap="round" transform="translate(310.96875 65) rotate(0 69.31640625 30)"><path d="M0 0 C51.03 -2.59, 102.66 -0.65, 138.63 0 M0 0 C45.31 2.12, 91.42 0.39, 138.63 0 M138.63 0 C137.88 23.15, 136.6 48.49, 138.63 60 M138.63 0 C139.41 13.83, 139.74 28.94, 138.63 60 M138.63 60 C107.9 61.14, 77.23 60.29, 0 60 M138.63 60 C88.2 58.5, 35.19 59.21, 0 60 M0 60 C-1.42 48.62, 1.88 34.15, 0 0 M0 60 C0.5 39.3, 1 18.63, 0 0" stroke="#1e1e1e" stroke-width="2" fill="none"/></g><g transform="translate(334.73519134521484 82.5) rotate(0 45.549964904785156 12.5)"><text x="45.549964904785156" y="17.619999999999997" font-family="Excalifont, Xiaolai, Segoe UI Emoji" font-size="20px" fill="#1e1e1e" text-anchor="middle" style="white-space: pre;" direction="ltr" dominant-baseline="alphabetic">Record B</text></g><g stroke-linecap="round" transform="translate(555.2265625 65) rotate(0 69.640625 30)"><path d="M0 0 C34.7 1.31, 72.65 0.24, 139.28 0 M0 0 C31.94 0.41, 61.23 1.8, 139.28 0 M139.28 0 C139.65 10.78, 141.66 23.17, 139.28 60 M139.28 0 C139.49 21.75, 140.47 41.12, 139.28 60 M139.28 60 C94.85 61.31, 48.68 61.72, 0 60 M139.28 60 C98.85 60.19, 59.28 60.34, 0 60 M0 60 C1.9 48.39, 0.7 34.91, 0 0 M0 60 C-0.14 43.74, -0.17 25.72, 0 0" stroke="#1e1e1e" stroke-width="2" fill="none"/></g><g transform="translate(580.6372222900391 82.5) rotate(0 44.22996520996094 12.5)"><text x="44.22996520996094" y="17.619999999999997" font-family="Excalifont, Xiaolai, Segoe UI Emoji" font-size="20px" fill="#1e1e1e" text-anchor="middle" style="white-space: pre;" direction="ltr" dominant-baseline="alphabetic">Record C</text></g><g stroke-linecap="round" transform="translate(782.0078125 35) rotate(0 130 60)"><path d="M0 0 C103.03 1.86, 203.84 0.14, 260 0 M0 0 C54.97 -2.56, 111.47 -2.68, 260 0 M260 0 C258.44 48.86, 258.6 95.05, 260 120 M260 0 C261.4 47.01, 259.83 92.92, 260 120 M260 120 C177.91 120.94, 95.35 120.74, 0 120 M260 120 C206.77 120.17, 154.43 119.04, 0 120 M0 120 C2.53 84.89, 2.04 48.13, 0 0 M0 120 C0.42 82.07, -0.42 45.16, 0 0" stroke="#1e1e1e" stroke-width="2" fill="none"/></g><g transform="translate(792.5478820800781 70) rotate(0 119.45993041992188 25)"><text x="119.45993041992188" y="17.619999999999997" font-family="Excalifont, Xiaolai, Segoe UI Emoji" font-size="20px" fill="#1e1e1e" text-anchor="middle" style="white-space: pre;" direction="ltr" dominant-baseline="alphabetic">Community: Z_CLUSTER</text><text x="119.45993041992188" y="42.62" font-family="Excalifont, Xiaolai, Segoe UI Emoji" font-size="20px" fill="#1e1e1e" text-anchor="middle" style="white-space: pre;" direction="ltr" dominant-baseline="alphabetic">(changes each run)</text></g><g stroke-linecap="round" transform="translate(782.0078125 210) rotate(0 130 45)"><path d="M0 0 C85.72 -1.26, 169.23 -3.16, 260 0 M0 0 C60.28 1.77, 121.1 1.79, 260 0 M260 0 C261.75 24.92, 260.9 54.13, 260 90 M260 0 C260.4 30.61, 259.98 62.91, 260 90 M260 90 C175.93 92.14, 91.64 89.46, 0 90 M260 90 C161.31 87.4, 61.03 88.02, 0 90 M0 90 C-0.16 72.55, -1.13 53.64, 0 0 M0 90 C-0.03 59.35, 0.91 27.71, 0 0" stroke="#1e1e1e" stroke-width="2" fill="none"/></g><g transform="translate(810.717887878418 230) rotate(0 101.28992462158203 25)"><text x="101.28992462158203" y="17.619999999999997" font-family="Excalifont, Xiaolai, Segoe UI Emoji" font-size="20px" fill="#1e1e1e" text-anchor="middle" style="white-space: pre;" direction="ltr" dominant-baseline="alphabetic">Enterprise: Zingg ID</text><text x="101.28992462158203" y="42.62" font-family="Excalifont, Xiaolai, Segoe UI Emoji" font-size="20px" fill="#1e1e1e" text-anchor="middle" style="white-space: pre;" direction="ltr" dominant-baseline="alphabetic">(stable across runs)</text></g><g mask="url(#mask-_qpfpvsBWDXx3tkzeNKmZ)" stroke-linecap="round"><g transform="translate(206.008 95) rotate(0 50.23049999999999 0)"><path d="M0.37 0.38 C9.05 0.03, 34.75 -1.16, 51.3 -1.04 C67.85 -0.92, 91.58 1.09, 99.67 1.1 M-0.9 -0.47 C8.22 -0.18, 36.35 -0.02, 53.53 -0.05 C70.7 -0.09, 94.45 -0.61, 102.15 -0.66" stroke="#1e1e1e" stroke-width="2" fill="none"/></g><g transform="translate(206.008 95) rotate(0 50.23049999999999 0)"><path d="M79.61 7.9 C85.44 4.29, 88.34 2.51, 102.15 -0.66 M79.61 7.9 C89.37 3.77, 98.24 1.29, 102.15 -0.66" stroke="#1e1e1e" stroke-width="2" fill="none"/></g><g transform="translate(206.008 95) rotate(0 50.23049999999999 0)"><path d="M79.38 -8.59 C85.4 -8.35, 88.36 -6.27, 102.15 -0.66 M79.38 -8.59 C89.15 -6.26, 98.1 -2.28, 102.15 -0.66" stroke="#1e1e1e" stroke-width="2" fill="none"/></g></g><mask id="mask-_qpfpvsBWDXx3tkzeNKmZ"><rect x="0" y="0" fill="#fff" width="406.469" height="195"/><rect x="239.75801953124997" y="82.5" fill="#000" width="36.9599609375" height="25" opacity="1"/></mask><g transform="translate(239.75801953125 82.5) rotate(0 16.87633499515428 12.524122867867845)"><text x="18.47998046875" y="17.619999999999997" font-family="Excalifont, Xiaolai, Segoe UI Emoji" font-size="20px" fill="#1e1e1e" text-anchor="middle" style="white-space: pre;" direction="ltr" dominant-baseline="alphabetic">A-B</text></g><g mask="url(#mask-7kbKYQqr5I6Or_lSu537t)" stroke-linecap="round"><g transform="translate(450.102 95) rotate(0 50.3125 0)"><path d="M0.38 -0.93 C8.75 -1.12, 34.38 -0.84, 51.27 -0.79 C68.16 -0.73, 93.66 -0.92, 101.73 -0.61 M-0.88 1.2 C7.76 1.11, 36.36 0.47, 53.43 0.34 C70.5 0.2, 93.88 0.6, 101.54 0.39" stroke="#1e1e1e" stroke-width="2" fill="none"/></g><g transform="translate(450.102 95) rotate(0 50.3125 0)"><path d="M78.88 8.77 C86.04 3.73, 94.99 4.08, 101.54 0.39 M78.88 8.77 C83.63 7.4, 90.15 4.3, 101.54 0.39" stroke="#1e1e1e" stroke-width="2" fill="none"/></g><g transform="translate(450.102 95) rotate(0 50.3125 0)"><path d="M78.79 -7.75 C86.03 -6.43, 95.02 0.28, 101.54 0.39 M78.79 -7.75 C83.43 -5.01, 89.97 -3.99, 101.54 0.39" stroke="#1e1e1e" stroke-width="2" fill="none"/></g></g><mask id="mask-7kbKYQqr5I6Or_lSu537t"><rect x="0" y="0" fill="#fff" width="650.727" height="195"/><rect x="484.4040207519531" y="82.5" fill="#000" width="36.01995849609375" height="25" opacity="1"/></mask><g transform="translate(484.4040207519531 82.5) rotate(0 16.119885824650538 12.603513505362962)"><text x="18.009979248046875" y="17.619999999999997" font-family="Excalifont, Xiaolai, Segoe UI Emoji" font-size="20px" fill="#1e1e1e" text-anchor="middle" style="white-space: pre;" direction="ltr" dominant-baseline="alphabetic">B-C</text></g><g stroke-linecap="round"><g transform="translate(912.008 155.5) rotate(0 0 27)"><path d="M-0.93 -1.04 C-1.12 3.99, -0.84 21.59, -0.79 30.6 C-0.73 39.61, -0.92 49.31, -0.61 53.02 M0.79 1.02 C0.95 5.72, 1.92 20.26, 1.51 29.06 C1.1 37.86, -1.15 49.78, -1.7 53.82" stroke="#1e1e1e" stroke-width="2" fill="none"/></g></g><mask/></svg>