<svg version="1.1" xmlns="http://www.w3.org/2000/svg" viewBox="0 0 389.052734375 827.484375" width="778.10546875" height="1654.96875"><!-- svg-source:excalidraw --><metadata><!-- payload-type:application/vnd.excalidraw+json --><!-- payload-version:2 --><!-- payload-start -->eyJ2ZXJzaW9uIjoiMSIsImVuY29kaW5nIjoiYnN0cmluZyIsImNvbXByZXNzZWQiOnRydWUsImVuY29kZWQiOiJ4nO2cWVPbSlx1MDAxNsff8ylcXJ7XoNv7kpcp9nAhQDBbuHOLXHUwMDEysrBcdTAwMDWyJGSZ7Va++3RcdTAwMWKwZKltJJBcdTAwMWRmYqUqXHUwMDE1t1qto+7z+59e88+nRqOZPERu80uj6d47tu+1Y/uu+Vmn37px31x1MDAwYlx1MDAwM3VcdTAwMGJccn/3w0HsXGZzdpMk6n/541x1MDAwZjuKrI6XXFyE4bXlhL2nx1xc3+25QdJXXHUwMDE5/1K/XHUwMDFijX+Gf6s7Xls/jPZPvCv77OspXHUwMDE2Pjjz2/CSMX/46DDTizWx6yR20PHd9Na9Slx1MDAxN6NfXHUwMDBmY7/uvHbSVSlcdTAwMThJXHUwMDBiUMQxwZyO7nZdr9NN1G2GuEXE2L2nl3xpgFFKP4nDa3c19MNYW/Iv6Oo/qVx1MDAxZFx1MDAxN7Zz3YnDQdBcdTAwMWXlSWI76Ed2rD48zXfp+X4reVx1MDAxOJauak/VbTP3jpNnq1EufdJT6qWdbuD2deXCUWpcdTAwMTjZjpfo+oAg/VxubWG01U7b4an8wUUntqPu+fD2+bKTeLfujmvHgVx1MDAxN3RWXHUwMDFmXHUwMDFj9drnzH+n31x1MDAxMds9d0s3XjDw/VGyXHUwMDE3tF3dJE1cdTAwMWKMWVx1MDAxOLSfLVx1MDAxY8vdd11dXHUwMDAyxJJcYkCEXHUwMDFj3ci5WTZtN1xmhlx1MDAwZSeRxFx1MDAwMjKcPuT115SfJcNcIi9tv++mjaNccljP+2DWXHUwMDBmx9wsce/TXHUwMDE2y3hpcpT0Nlqtx278I2JnZ1x1MDAwN2eXN3tcdTAwMDfNUb6fhUpcdTAwMWFEbfvJXHUwMDFlyDlHnFx1MDAwMSFcdOGj+75cdTAwMTdcXOfrxFx1MDAwZp3r9Fx1MDAxM4apPz+bmInW0YFrX3zj4eXjnbOxvt8/2X0ozVxmRNRiXGJcdTAwMDKZdXvtLlx1MDAxOFx1MDAxN/iBmFhcdTAwMDRcdTAwMTLAkIlcdTAwMWWwoKY+aqCZmtRNX9pcdTAwMTU/p/zMw0RcdTAwMDEkiiZsgolMglx0XCJGXHUwMDE5wITh+dEk2fogurG3XHUwMDBmw3X/qrva45en62dcdTAwMTmaPpuLfXrYuen7X/vcPtzq/blcImOnXHUwMDE1YHk1/paX99txXHUwMDFj3pUtN/bZ+eVcdTAwMWST+1x1MDAwN2vbx1Gvt3J7sv+tXFy55eintFx1MDAxZfrhjn1iw+07Tjs3Udj5/vVuf7ddmn6OLIIhXHUwMDFiR3ro9sSAv4qPXHUwMDAyU2lcdTAwMGWeXHUwMDBi/GvEXHUwMDFmvVx1MDAxYn9cYpXpXHUwMDEyS1x1MDAwNqvwL6l6XHUwMDA2MT7HYLrkhHtcdTAwMTTEwj+Ib+Pz7lx1MDAwZti5pre/XHUwMDFh/9b2ko3w8vaptK92/sS812uz41rxJ/Xgv3aBW3tycLncObuPnVx1MDAxZYmcx6Wl0vhTYWGJKFx1MDAxNzCHP1x1MDAxMlx1MDAwNvwpteRcIvrPXHUwMDAzf/x+/DHGXGYwimlcdTAwMTX8KeCSMinniP/V8ia+eDjvXHUwMDFlbXucrlxyyOnOvf84XHUwMDA3TKeWXHUwMDFiPp4/XHUwMDFjU1x1MDAxMfbO9/2L1lx1MDAxYdjd2Fx1MDAwNFx1MDAxYlx1MDAxZjH6k41o6d65plx1MDAxNLTvl06OPeLvnVx1MDAxY1x1MDAxNvFve3YvXGba4/BcdTAwMGJiUUGL/X5ZRFx1MDAxZsHCyHhEvuHeQlx1MDAwMd6tXHUwMDAwpMKomVKIoKCYXHUwMDFiUC/gP+rpQ+WEhMCMQMycdbZFj2NxerRxe1x1MDAxYqP9a7na7yBnXHUwMDBlTM6qpz+13LXdh82r7ZuL+Oa6+31cdTAwMDf82YUnm3u1alxiq0dDXHUwMDFlW9HpzfnR1c0+ONxcdTAwMWW49vLGd7RZfv5cdTAwMDBSi0AumcjpXGLXN8Z1Ie1JXHUwMDEwSyCA4aIn8VdcdTAwMDVNoOU1gUBcdTAwMDBcdTAwMTlcdTAwMDSZYXwqXHSFtJEkcDX4l4DOM/yHx71cdTAwMTV0fXpcdTAwMWXB23aweXMkv51cXFx1MDAxZPzfITZ9mJIzclx1MDAxYy+GLYDQXHUwMDE4WZJcdTAwMTSIQsziVLnY6DKARahcdTAwMDWAOc/vXHUwMDAw2oxcdTAwMDM2K9tlR88pxS47wkhcIlxiq43YIZVcYlxiLCB/XHUwMDBitHWOUkfJUejlNSH9VyN1suGP0b///mzMvaRcXJtxKNOLZ59HpExcdTAwMDFcdTAwMTPY0FeRirTAglx1MDAxN/h2P1lccns9L1FVta8/s6C/iVx1MDAxZCcryi2UK403//PS11aJOXvtb6Ez0FW4XHUwMDA0NP5cdTAwMTKpOIpcdTAwMDFAnFBcdFAmX8eOdJNcdTAwMTV8ylxy2q9bMX3uMGOFMlx1MDAwMjJcdTAwMGWgalx1MDAwNsqE4Fx1MDAwMmFWMFx1MDAwMltEikw7UYOn69pZ1irXde1cdTAwMDJMyubsvbxcdTAwMWO6/kV4V0pup1x1MDAwZlx1MDAwYqfKLeZcdTAwMTbOTYWAotxCXHUwMDBikMyXZiZLRmq7XHUwMDE4XHUwMDBl1amu/P3qquRcdTAwMTUgyoBplDRRXVx1MDAwNeZcYoA39Yf+XHUwMDA3pFx1MDAxNWazY/l6/klury8+XHUwMDE34SwtWVo4XHUwMDE1zUJ1aJlcbqqQXHUwMDAwnLX3fcI5fdY1J5xcdTAwMTAoz1x1MDAxM0Iy5X1ESadBOGnBjDkp5fRBdUWlxMTQMUVcdTAwMTbENI2uqVx1MDAwZaVKyS01Wsm41UI461x1MDAxM07xbuFkWGJcIlx1MDAwMTZcciUn90o5h0RIXG7ftI5cXOfk6Tyk8/VOKIJcdTAwMTMw0FdcdTAwMDGAeVxiaWlcdFx1MDAxYlxuKUFcdTAwMTJcdTAwMDLOVSdcdTAwMTQxLEhtQjp9/jpnXHUwMDA1IFxmXCIuMcB6v4pEtGBcdTAwMDWxXHUwMDEwgUpqsWCQXHUwMDExJH5ZXHUwMDBmdPqk4jRdRYhYXGaOXHUwMDBiK1FpXFykXHUwMDFkl5G4qqzSqJwjccWIW1KyNE86o7FQ13erq3y3ulIkXHUwMDE5q7pMp/sz6imQ1sTM5+n6t19xn1x1MDAxZJ8v75z98Lc6q9HV6dnxbJe9ZqPcXHUwMDEzmdHXXHUwMDEyZZbuMpqk+C3FqXaqtzxRb3mI1ltcdTAwMWVcdTAwMDa6/virhVhC0MxAgvLxUlxumjWPgFgxXHUwMDE0UWU1xlJyXGKEapa6XHUwMDAyYumJIW1cdTAwMDTAkFGoglwixYIziFxyXHUwMDExXHUwMDExW0hmJrdcdTAwMTD4ZUON6ZP1U4dcdTAwMWFSOVxmXHUwMDFh39zNILCkKI430jAwXG6B2djwO8S8XG7xa/n90yqcXHUwMDAwXCIgJZVcdTAwMDKYMp1cdTAwMTAhXHUwMDEwnuM20110lmytUJ9cXN6vXHUwMDFl7sSttW5773y2K0KziWBjuZVcdTAwMWXTSlx1MDAwZrCqXHUwMDBmqLb6UPL7rL5cdTAwMTJcbiA5ZYRwXpS9N6rv9KXwfFxmUJdcdTAwMTJf/X6lUFSNkZEwXHJJtE7zl3kzZtixNVx1MDAxZv01XHUwMDFmWijo71x1MDAxOD5Pe4SpXHUwMDA1kapnSVx1MDAwNZFcZmRWXHUwMDFmhypk2Cgo1XBFT1x1MDAwZlJcdTAwMTVugN5cXFhcdTAwMTRltJhcdTAwMWWvcVx1MDAxY7JSYbdcdTAwMTBCXFy1XGZH1VZcdTAwMTnVU0BwXHUwMDAw37RbaIqmQi5cdTAwMDR+01T40FHVxz/VYMN/rsKGM6zDtO7CIGl5j8MgXHUwMDA2xlI37J7n60ajY2Uu+15H10XTUea7cTNbJYnn2P4oQ1x1MDAxMkbpXUeVaHuBXHUwMDFib5U5yFx1MDAxNsZex1x1MDAwYmz/sNxH2IMkPHD7T5+RxFx1MDAwMzdbYe7XUU/HQnSKXHUwMDAymFx1MDAwZlqUUFx1MDAwMEiYpVwiXHUwMDFmoKSwy4dcdTAwMDKruL9H9dc4mXhQaIF+neivVkBf9V8wRoSalsAm7lxuwkxpPkBkJvtcdTAwMGLe1Jt6Ib+lrHCSRmR7cX8uwPe8djuLZY75V1x1MDAwZeLlmTebX1x1MDAwZurmQ1x1MDAxNSVQl9BihFx1MDAxM1Y8XHUwMDBmXGKZXHR1IS01XHUwMDAwQOPb/1x1MDAxNqjPXHUwMDA09bXyqHMqMZRcdTAwMTiYRmVcdTAwMTNJR0DpO+VQzmTR5l2o79hcdTAwMTeu/3FIf+XQXZ50o/X1gG4+PlGmVy8tqUYuWFx1MDAxNo7+YWBcdTAwMDJcdTAwMWTCRVCfXHUwMDFi6etcdTAwMTWCOkdYgVx1MDAwYnilrb6IXHSiY/qbVlx1MDAxMGZK+tGwyEYvbLv+R0D9lVx1MDAwM3Z51M3m18O6+fhEmf475ZbeP1jsvlx1MDAxM84swXOn/1+Q58iCjE9cYu3095pUnTHwXHUwMDFiVYBcdTAwMTeYQT3fX1x0eMFcdTAwMDTSRz0/XHUwMDFj8MuOM4hVof9cdNxAN86/P1x1MDAwMvWvnKsrXHUwMDBl35++oVH4hHrIN5+SKEM+kVx1MDAxNkKm7jzHSC+gmLhcdTAwMTfcQoBPOJ7zm1x1MDAwNfpcblxmb1ZgmHAgXGKXsFLQ5oBLvW768YL2wSBo9OzE6X5cdTAwMDR2XznPlmfXYHs90Jq3TJSAXHUwMDE2YW5cdTAwMDFBce6E3HAzOjb1zVx1MDAxMbFcYsGT/meO34zYXHUwMDE5R+qv5Smnglx1MDAwM1wiSKU4XHIxk5IjMZMt5+9ifDf8XGJwv7KxLlx1MDAwZnfW6HqoNi8jl1x0xVxcWFx1MDAwMCCGoJ5GJ1wic8pyuKGBqPE1wJipoZw+lm/YSi0tXGIhRmJcdTAwMTGXK8XlrfLEYiQlIZCZ/s+sichcbolVWIbo43Wtf7hcdTAwMWZituyVnT95Zsesrlxm7adnNW/aUdRKVI02X5b7lf947VxcXHI8pSVulH79MOmbXHUwMDFhv69cdTAwMDf2hZ+v3eat596tTMfl07N2aFxc3OF+mp+ffv5cdTAwMTdcdTAwMGYtdDgifQ==<!-- payload-end --></metadata><defs><style class="style-fonts">
      @font-face { font-family: Excalifont; src: url(https://esm.sh/@excalidraw/excalidraw@0.18.0/dist/prod/fonts/Excalifont/Excalifont-Regular-a88b72a24fb54c9f94e3b5fdaa7481c9.woff2); }</style></defs><rect x="0" y="0" width="389.052734375" height="827.484375" fill="transparent"/><g stroke-linecap="round" transform="translate(30 30) rotate(0 164.5263671875 313.7421875)"><path d="M0 0 C81.79 -1.39, 162.56 -0.48, 329.05 0 M0 0 C85.31 -1.29, 170.78 -0.73, 329.05 0 M329.05 0 C327.36 191.23, 326.71 382.95, 329.05 627.48 M329.05 0 C327.76 197.13, 327.96 394.74, 329.05 627.48 M329.05 627.48 C259.08 625.88, 188.42 625.74, 0 627.48 M329.05 627.48 C214.37 626.34, 99.42 626.92, 0 627.48 M0 627.48 C-2.39 472.4, -1.83 316.82, 0 0 M0 627.48 C-0.48 489.73, -0.42 351.78, 0 0" stroke="#1e1e1e" stroke-width="2" fill="none"/></g><g transform="translate(97.12644958496094 35) rotate(0 97.39991760253906 12.5)"><text x="97.39991760253906" y="17.619999999999997" font-family="Excalifont, Xiaolai, Segoe UI Emoji" font-size="20px" fill="#1e1e1e" text-anchor="middle" style="white-space: pre;" direction="ltr" dominant-baseline="alphabetic">Active learning cycle</text></g><g stroke-linecap="round" transform="translate(147.62109375 55) rotate(0 67.20703125 30)"><path d="M15 0 C45.44 -0.17, 78.45 -1.27, 119.41 0 M15 0 C41.2 0.11, 68.04 0.19, 119.41 0 M119.41 0 C128.14 -0.84, 134.18 5.09, 134.41 15 M119.41 0 C127.26 1.64, 134.74 3.68, 134.41 15 M134.41 15 C136.25 27.5, 132.81 38.91, 134.41 45 M134.41 15 C134.76 21.55, 135.01 28.34, 134.41 45 M134.41 45 C134 54.77, 127.43 58.74, 119.41 60 M134.41 45 C134.07 53.79, 130.91 59.67, 119.41 60 M119.41 60 C97.2 58.14, 76.86 58.36, 15 60 M119.41 60 C88.78 60.71, 57.43 59.41, 15 60 M15 60 C6.81 58.5, -1.47 54.32, 0 45 M15 60 C2.99 59.61, 2.03 54.52, 0 45 M0 45 C1.19 33.87, 0.63 25.6, 0 15 M0 45 C0.41 36.06, 0.1 25.39, 0 15 M0 15 C-1.21 6.24, 4.23 0.29, 15 0 M0 15 C-0.54 5.36, 5.65 1.3, 15 0" stroke="#1e1e1e" stroke-width="2" fill="none"/></g><g transform="translate(168.4560546875 72.5) rotate(0 46.3720703125 12.5)"><text x="46.3720703125" y="17.619999999999997" font-family="Excalifont, Xiaolai, Segoe UI Emoji" font-size="20px" fill="#1e1e1e" text-anchor="middle" style="white-space: pre;" direction="ltr" dominant-baseline="alphabetic">Select pairs</text></g><g stroke-linecap="round" transform="translate(94.431640625 165) rotate(0 63.91796875 30)"><path d="M15 0 C47.02 0.7, 77.63 -0.41, 112.84 0 M15 0 C50.39 0.82, 85.9 -0.79, 112.84 0 M112.84 0 C121.99 -0.24, 127.93 3.13, 127.84 15 M112.84 0 C124.48 0.33, 126.51 6.76, 127.84 15 M127.84 15 C128.96 23.39, 129.07 33.48, 127.84 45 M127.84 15 C128.06 25.59, 128.43 35.01, 127.84 45 M127.84 45 C127.61 53.02, 121.58 59.7, 112.84 60 M127.84 45 C126.62 56.49, 122.5 57.83, 112.84 60 M112.84 60 C80.63 59.99, 50.26 59.49, 15 60 M112.84 60 C82.1 59.1, 49.41 60.84, 15 60 M15 60 C3.5 58.53, -0.68 53.26, 0 45 M15 60 C4.61 62.03, -0.48 55.34, 0 45 M0 45 C-1.84 36.39, -0.66 26.67, 0 15 M0 45 C0.23 36.15, -1.11 26.49, 0 15 M0 15 C1.24 4.23, 5.29 -0.47, 15 0 M0 15 C0.36 5.65, 6.3 -0.65, 15 0" stroke="#1e1e1e" stroke-width="2" fill="none"/></g><g transform="translate(113.6474609375 182.5) rotate(0 44.7021484375 12.5)"><text x="44.7021484375" y="17.619999999999997" font-family="Excalifont, Xiaolai, Segoe UI Emoji" font-size="20px" fill="#1e1e1e" text-anchor="middle" style="white-space: pre;" direction="ltr" dominant-baseline="alphabetic">Label pairs</text></g><g stroke-linecap="round" transform="translate(80.392578125 305) rotate(0 77.95703125 30)"><path d="M15 0 C58.47 -1, 100.73 1.06, 140.91 0 M15 0 C52.06 0.09, 86.53 -0.38, 140.91 0 M140.91 0 C150.68 0.09, 154.04 6.43, 155.91 15 M140.91 0 C151.24 -1.32, 157.67 5.85, 155.91 15 M155.91 15 C154.46 24.44, 154.45 31.98, 155.91 45 M155.91 15 C156.47 25.27, 155.78 34.39, 155.91 45 M155.91 45 C153.93 53.74, 150.62 58.95, 140.91 60 M155.91 45 C157.41 54.67, 148.74 60.29, 140.91 60 M140.91 60 C106.59 57.6, 71.41 59.4, 15 60 M140.91 60 C101.46 60.15, 64.59 60.06, 15 60 M15 60 C3.53 59.32, -1.74 54.67, 0 45 M15 60 C7.03 59.52, 0.34 55.21, 0 45 M0 45 C0.47 34.01, 0.03 23.99, 0 15 M0 45 C-0.02 33.63, -0.73 24.83, 0 15 M0 15 C-0.77 5.29, 4.53 0.31, 15 0 M0 15 C0.65 6.3, 4.35 -1.36, 15 0" stroke="#1e1e1e" stroke-width="2" fill="none"/></g><g transform="translate(101.9775390625 322.5) rotate(0 56.3720703125 12.5)"><text x="56.3720703125" y="17.619999999999997" font-family="Excalifont, Xiaolai, Segoe UI Emoji" font-size="20px" fill="#1e1e1e" text-anchor="middle" style="white-space: pre;" direction="ltr" dominant-baseline="alphabetic">Update model</text></g><g stroke-linecap="round" transform="translate(106.5859375 415) rotate(0 108.7421875 108.7421875)"><path d="M109 0 C134.19 24.9, 162.09 51.61, 217.48 109 M109 0 C143.31 32.77, 177.15 67.75, 217.48 109 M217.48 109 C183.72 141.66, 151.92 176.58, 109 217.48 M217.48 109 C188.19 139.69, 158.82 168.76, 109 217.48 M109 217.48 C74.28 183.41, 37.47 146.89, 0 109 M109 217.48 C87.27 196.19, 65.77 172.81, 0 109 M0 109 C32.75 75.68, 67.06 41.09, 109 0 M0 109 C35.54 73.26, 69.2 40.04, 109 0" stroke="#1e1e1e" stroke-width="2" fill="none"/></g><g transform="translate(179.373046875 498.87109375) rotate(0 36.083984375 25)"><text x="36.083984375" y="17.619999999999997" font-family="Excalifont, Xiaolai, Segoe UI Emoji" font-size="20px" fill="#1e1e1e" text-anchor="middle" style="white-space: pre;" direction="ltr" dominant-baseline="alphabetic">Accurate</text><text x="36.083984375" y="42.62" font-family="Excalifont, Xiaolai, Segoe UI Emoji" font-size="20px" fill="#1e1e1e" text-anchor="middle" style="white-space: pre;" direction="ltr" dominant-baseline="alphabetic">enough?</text></g><g stroke-linecap="round" transform="translate(137.41796875 737.484375) rotate(0 77.41015625 30)"><path d="M0 0 C47.73 1.87, 97.21 0.95, 154.82 0 M0 0 C45.3 -0.49, 91.76 -0.03, 154.82 0 M154.82 0 C154.1 13.92, 155.98 24.19, 154.82 60 M154.82 0 C155.84 22.31, 155.55 46.59, 154.82 60 M154.82 60 C105.79 60.33, 54.46 58.76, 0 60 M154.82 60 C118.76 59.04, 80.46 59.31, 0 60 M0 60 C0.58 42.09, 0.08 27.36, 0 0 M0 60 C-0.8 40.94, 0.94 22.45, 0 0" stroke="#1e1e1e" stroke-width="2" fill="none"/></g><g transform="translate(171.224609375 754.984375) rotate(0 43.603515625 12.5)"><text x="43.603515625" y="17.619999999999997" font-family="Excalifont, Xiaolai, Segoe UI Emoji" font-size="20px" fill="#1e1e1e" text-anchor="middle" style="white-space: pre;" direction="ltr" dominant-baseline="alphabetic">Run match</text></g><g stroke-linecap="round"><g transform="translate(185.022 116) rotate(0 -13.375500000000002 22.500500000000002)"><path d="M-0.28 0.34 C-4.74 4.39, -22.33 16.56, -26.75 24.09 C-31.16 31.62, -26.77 42.11, -26.77 45.54 M0.58 0.04 C-3.96 3.94, -22.6 15.72, -27.22 23.17 C-31.83 30.62, -27.23 41.11, -27.13 44.75" stroke="#1e1e1e" stroke-width="2" fill="none"/></g><g transform="translate(185.022 116) rotate(0 -13.375500000000002 22.500500000000002)"><path d="M-32.52 35.74 C-30.57 38.43, -29.17 41.22, -27.13 44.75 M-32.52 35.74 C-30.49 39.31, -28.22 42.68, -27.13 44.75" stroke="#1e1e1e" stroke-width="2" fill="none"/></g><g transform="translate(185.022 116) rotate(0 -13.375500000000002 22.500500000000002)"><path d="M-25.47 34.38 C-25.67 37.46, -26.42 40.67, -27.13 44.75 M-25.47 34.38 C-26.24 38.47, -26.77 42.38, -27.13 44.75" stroke="#1e1e1e" stroke-width="2" fill="none"/></g></g><mask/><g stroke-linecap="round"><g transform="translate(159.35 226) rotate(0 -0.5249999999999915 37.5)"><path d="M0.75 -0.16 C0.69 6.43, -0.7 26.42, -0.81 38.96 C-0.91 51.5, 0.29 69.13, 0.12 75.06 M-0.32 -1.29 C-0.47 5.56, -1.7 27.53, -1.65 40.48 C-1.6 53.43, 0.02 70.59, -0.03 76.4" stroke="#1e1e1e" stroke-width="2" fill="none"/></g><g transform="translate(159.35 226) rotate(0 -0.5249999999999915 37.5)"><path d="M-6.86 59.75 C-5.41 64.32, -3.46 70.11, -0.03 76.4 M-6.86 59.75 C-4.99 64.89, -3.64 70.57, -0.03 76.4" stroke="#1e1e1e" stroke-width="2" fill="none"/></g><g transform="translate(159.35 226) rotate(0 -0.5249999999999915 37.5)"><path d="M5.44 59.25 C3.69 64.03, 2.46 69.95, -0.03 76.4 M5.44 59.25 C3.56 64.5, 1.16 70.32, -0.03 76.4" stroke="#1e1e1e" stroke-width="2" fill="none"/></g></g><mask/><g stroke-linecap="round"><g transform="translate(159.35 366) rotate(0 10.06750000000001 38.55099999999999)"><path d="M-0.16 0.19 C-0.23 4.27, -4.6 12.48, -1.04 25.17 C2.52 37.86, 17.58 67.71, 21.19 76.34 M-1.71 -0.75 C-1.89 2.95, -5.7 10.66, -2.01 23.67 C1.69 36.67, 16.69 68.2, 20.46 77.26" stroke="#1e1e1e" stroke-width="2" fill="none"/></g><g transform="translate(159.35 366) rotate(0 10.06750000000001 38.55099999999999)"><path d="M3.11 59.25 C7.87 63.7, 13.83 68.35, 20.46 77.26 M3.11 59.25 C7.18 62.59, 11.95 67.93, 20.46 77.26" stroke="#1e1e1e" stroke-width="2" fill="none"/></g><g transform="translate(159.35 366) rotate(0 10.06750000000001 38.55099999999999)"><path d="M18.74 52.32 C19.65 58.47, 21.71 64.85, 20.46 77.26 M18.74 52.32 C19.09 57.28, 20.16 64.26, 20.46 77.26" stroke="#1e1e1e" stroke-width="2" fill="none"/></g></g><mask/><g mask="url(#mask-rl6_fw69PRDKVpmmBvWPM)" stroke-linecap="round"><g transform="translate(246.615 446.787) rotate(0 12.34599999999999 -163.99849999999998)"><path d="M0.19 -0.04 C4.38 -9.47, 21.91 -38.02, 25.86 -56.73 C29.82 -75.44, 24.15 -91.46, 23.93 -112.29 C23.71 -133.13, 24.61 -158.63, 24.55 -181.73 C24.49 -204.84, 23.52 -229.97, 23.57 -250.93 C23.62 -271.89, 28.16 -294.71, 24.86 -307.48 C21.57 -320.25, 7.52 -324.31, 3.8 -327.56 M-1.16 -1.11 C2.9 -10.31, 20.93 -36.81, 25.53 -55.16 C30.13 -73.52, 26.56 -90.33, 26.42 -111.24 C26.29 -132.15, 24.93 -157.46, 24.72 -180.6 C24.51 -203.74, 24.9 -229.32, 25.17 -250.09 C25.44 -270.86, 30.35 -292.12, 26.37 -305.22 C22.38 -318.32, 5.44 -325.08, 1.27 -328.67" stroke="#1e1e1e" stroke-width="2" fill="none"/></g><g transform="translate(246.615 446.787) rotate(0 12.34599999999999 -163.99849999999998)"><path d="M16.11 -325.33 C10.69 -325.03, 5.44 -328.69, 1.27 -328.67 M16.11 -325.33 C11.57 -325.64, 8.57 -327.49, 1.27 -328.67" stroke="#1e1e1e" stroke-width="2" fill="none"/></g><g transform="translate(246.615 446.787) rotate(0 12.34599999999999 -163.99849999999998)"><path d="M10.49 -316.58 C7.12 -319.45, 3.9 -326.29, 1.27 -328.67 M10.49 -316.58 C7.42 -319.15, 5.86 -323.25, 1.27 -328.67" stroke="#1e1e1e" stroke-width="2" fill="none"/></g></g><mask id="mask-rl6_fw69PRDKVpmmBvWPM"><rect x="0" y="0" fill="#fff" width="371.307" height="874.7839999999999"/><rect x="259.0853203125" y="252.50000000000006" fill="#000" width="24.443359375" height="25" opacity="1"/></mask><g transform="translate(259.0853203125 252.5) rotate(0 0.9081626002924423 29.932132935434566)"><text x="12.2216796875" y="17.619999999999997" font-family="Excalifont, Xiaolai, Segoe UI Emoji" font-size="20px" fill="#1e1e1e" text-anchor="middle" style="white-space: pre;" direction="ltr" dominant-baseline="alphabetic">No</text></g><g mask="url(#mask-DNyGjKqbrqkhQL0Jh1WGO)" stroke-linecap="round"><g transform="translate(214.828 632.984) rotate(0 -0.6176480965928874 50.06766044264663)"><path d="M-0.04 1.17 C0 5.1, 0.13 13.21, 0.06 23.74 C-0.02 34.27, -0.5 51.84, -0.5 64.36 C-0.51 76.88, -0.17 92.91, 0.05 98.88 M-1.52 0.74 C-1.62 4.79, -0.86 14.07, -0.86 24.88 C-0.86 35.69, -1.73 53.18, -1.54 65.6 C-1.34 78.02, 0.1 93.55, 0.33 99.39" stroke="#1e1e1e" stroke-width="2" fill="none"/></g><g transform="translate(214.828 632.984) rotate(0 -0.6176480965928874 50.06766044264663)"><path d="M-6.76 83.12 C-2.97 87.87, -3.8 91.7, 0.33 99.39 M-6.76 83.12 C-4.08 88, -3.18 93.25, 0.33 99.39" stroke="#1e1e1e" stroke-width="2" fill="none"/></g><g transform="translate(214.828 632.984) rotate(0 -0.6176480965928874 50.06766044264663)"><path d="M5.36 82.37 C5.68 87.33, 1.38 91.38, 0.33 99.39 M5.36 82.37 C4.55 87.36, 1.96 92.81, 0.33 99.39" stroke="#1e1e1e" stroke-width="2" fill="none"/></g></g><mask id="mask-DNyGjKqbrqkhQL0Jh1WGO"><rect x="0" y="0" fill="#fff" width="314.828" height="832.984"/><rect x="200.00250935673412" y="664.7123077351342" fill="#000" width="29.111328125" height="25" opacity="1"/></mask><g transform="translate(200.00250935673412 664.7123077351342) rotate(0 14.207842546672993 18.339352707512433)"><text x="14.5556640625" y="17.619999999999997" font-family="Excalifont, Xiaolai, Segoe UI Emoji" font-size="20px" fill="#1e1e1e" text-anchor="middle" style="white-space: pre;" direction="ltr" dominant-baseline="alphabetic">Yes</text></g></svg>