<?xml version="1.0" standalone="no"?>
<!DOCTYPE svg PUBLIC "-//W3C//DTD SVG 20010904//EN"
 "http://www.w3.org/TR/2001/REC-SVG-20010904/DTD/svg10.dtd">
<svg version="1.0" xmlns="http://www.w3.org/2000/svg"
 width="1339.000000pt" height="760.000000pt" viewBox="0 0 1339.000000 760.000000"
 preserveAspectRatio="xMidYMid meet">

<g transform="translate(0.000000,760.000000) scale(0.100000,-0.100000)"
fill="#000000" stroke="none">
<path d="M0 3805 l0 -3765 6690 0 6690 0 0 3765 0 3765 -6690 0 -6690 0 0
-3765z m9380 400 l0 -1575 -192 0 c-106 0 -1151 0 -2323 0 -1172 0 -2295 0
-2497 0 l-368 0 0 1575 0 1575 2690 0 2690 0 0 -1575z"/>
<path d="M5013 4600 c-35 -14 -43 -69 -43 -291 0 -272 6 -289 109 -289 l51 0
0 200 c0 187 1 201 20 220 19 19 33 20 220 20 l200 0 0 53 c0 95 9 92 -282 94
-139 1 -263 -2 -275 -7z"/>
<path d="M6787 4502 c-24 -27 -21 -58 9 -81 32 -25 61 -27 92 -5 27 19 29 64
4 87 -25 23 -85 22 -105 -1z"/>
<path d="M6274 4446 c-3 -8 -4 -27 -2 -43 l3 -28 133 -3 c72 -1 132 -6 132
-10 0 -4 -10 -19 -23 -33 -12 -15 -73 -88 -135 -163 -105 -126 -113 -139 -110
-174 l3 -37 220 0 220 0 3 48 3 47 -140 0 c-80 0 -141 4 -141 9 0 5 59 80 130
166 118 142 130 160 130 196 l0 39 -210 0 c-172 0 -212 -3 -216 -14z"/>
<path d="M6790 4150 l0 -201 53 3 52 3 0 195 0 195 -52 3 -53 3 0 -201z"/>
<path d="M7017 4343 c-4 -3 -7 -93 -7 -200 l0 -193 55 0 55 0 0 121 c0 120 0
121 29 150 20 19 40 29 59 29 77 0 92 -31 92 -185 l0 -116 53 3 52 3 0 147
c-1 133 -3 150 -21 175 -53 72 -136 92 -221 54 -40 -19 -41 -19 -46 0 -4 15
-14 19 -49 19 -25 0 -48 -3 -51 -7z"/>
<path d="M7593 4327 c-147 -77 -131 -288 24 -341 62 -21 101 -20 148 4 22 11
41 20 42 20 2 0 3 -12 3 -26 0 -34 -48 -81 -92 -89 -23 -4 -54 0 -96 14 -34
12 -64 21 -66 21 -7 0 -36 -56 -36 -69 0 -24 68 -44 162 -49 85 -4 102 -2 140
18 88 43 107 109 103 355 -1 83 -3 153 -4 158 0 4 -23 7 -51 7 -43 0 -50 -3
-50 -20 0 -25 -11 -25 -52 0 -45 27 -120 26 -175 -3z m162 -81 c18 -8 38 -23
44 -34 19 -36 13 -87 -14 -116 -20 -21 -33 -26 -75 -26 -40 0 -56 5 -75 24
-51 52 -40 114 26 148 41 22 50 22 94 4z"/>
<path d="M8120 4334 c-77 -33 -110 -86 -110 -174 0 -92 33 -141 118 -173 56
-22 97 -21 151 3 24 11 46 18 48 16 10 -10 -20 -78 -41 -91 -41 -27 -83 -29
-152 -5 -36 12 -67 20 -68 18 -21 -32 -36 -59 -36 -66 0 -4 17 -17 38 -27 54
-26 199 -33 256 -11 99 38 118 95 114 341 l-3 180 -52 3 c-48 3 -53 1 -53 -17
0 -26 -1 -26 -47 -1 -45 24 -113 26 -163 4z m184 -116 c24 -26 27 -37 22 -67
-8 -52 -45 -81 -104 -81 -53 1 -72 12 -94 55 -34 67 32 143 112 130 21 -4 46
-18 64 -37z"/>
<path d="M5297 4292 c-26 -27 -27 -31 -27 -150 l0 -122 129 0 c179 0 176 -3
176 167 l0 128 -125 3 -126 3 -27 -29z"/>
<path d="M5730 4135 c0 -197 -7 -232 -49 -255 -12 -6 -101 -10 -217 -10 l-196
0 4 -55 c4 -42 10 -59 29 -74 23 -19 38 -20 275 -21 l251 0 24 26 24 26 0 250
0 250 -28 24 c-21 18 -40 24 -73 24 l-44 0 0 -185z"/>
</g>
</svg>
